G04*
G04 #@! TF.GenerationSoftware,Altium Limited,Altium Designer,20.2.4 (192)*
G04*
G04 Layer_Physical_Order=2*
G04 Layer_Color=16711680*
%FSLAX44Y44*%
%MOMM*%
G71*
G04*
G04 #@! TF.SameCoordinates,DF91FCDE-8142-45B4-A5F5-43113F2708E9*
G04*
G04*
G04 #@! TF.FilePolarity,Positive*
G04*
G01*
G75*
%ADD10C,3.0000*%
%ADD11C,2.0000*%
%ADD12C,0.2540*%
%ADD13R,2.5000X2.5000*%
%ADD14C,2.5000*%
%ADD15C,1.5240*%
%ADD16R,1.5240X1.5240*%
%ADD17R,2.5000X2.5000*%
%ADD18R,1.2000X1.2000*%
%ADD19C,1.2000*%
G36*
X284383Y271780D02*
X285653D01*
X1129303Y266705D01*
X1130203Y267601D01*
Y1112520D01*
X1140460Y1122777D01*
X1139974Y1123950D01*
X284383D01*
Y271780D01*
D02*
G37*
%LPC*%
G36*
X478693Y1041273D02*
X481642Y1040982D01*
X484477Y1040122D01*
X487090Y1038726D01*
X489380Y1036846D01*
X491259Y1034556D01*
X492656Y1031943D01*
X493516Y1029108D01*
X493806Y1026160D01*
X493516Y1023212D01*
X492656Y1020377D01*
X491259Y1017764D01*
X489380Y1015474D01*
X487090Y1013594D01*
X484477Y1012198D01*
X481642Y1011338D01*
X478693Y1011047D01*
X475745Y1011338D01*
X472910Y1012198D01*
X470297Y1013594D01*
X468007Y1015474D01*
X466128Y1017764D01*
X464731Y1020377D01*
X463871Y1023212D01*
X463581Y1026160D01*
X463871Y1029108D01*
X464731Y1031943D01*
X466128Y1034556D01*
X468007Y1036846D01*
X470297Y1038726D01*
X472910Y1040122D01*
X475745Y1040982D01*
X478693Y1041273D01*
D02*
G37*
G36*
Y991743D02*
X481642Y991452D01*
X484477Y990592D01*
X484559Y990548D01*
X601883D01*
X601883Y990548D01*
X605157Y990117D01*
X608207Y988854D01*
X610827Y986844D01*
X638872Y958798D01*
X673003D01*
X676277Y958367D01*
X679327Y957104D01*
X681947Y955094D01*
X683957Y952474D01*
X685220Y949424D01*
X685651Y946150D01*
X685220Y942876D01*
X683957Y939826D01*
X681947Y937206D01*
X679327Y935196D01*
X676277Y933933D01*
X673003Y933502D01*
X633633D01*
X633633Y933502D01*
X630360Y933933D01*
X627309Y935196D01*
X624690Y937206D01*
X596644Y965252D01*
X488537D01*
X487090Y964064D01*
X484477Y962668D01*
X481642Y961808D01*
X478693Y961517D01*
X475745Y961808D01*
X472910Y962668D01*
X470297Y964064D01*
X468007Y965944D01*
X466128Y968234D01*
X464731Y970847D01*
X463871Y973682D01*
X463581Y976630D01*
X463620Y977029D01*
X463505Y977900D01*
X463936Y981174D01*
X465200Y984224D01*
X467210Y986844D01*
X469829Y988854D01*
X469932Y988896D01*
X470297Y989196D01*
X472910Y990592D01*
X475745Y991452D01*
X478693Y991743D01*
D02*
G37*
G36*
X695863Y1039975D02*
X1026063D01*
X1029502Y1039636D01*
X1032808Y1038633D01*
X1035855Y1037004D01*
X1038526Y1034813D01*
X1040718Y1032142D01*
X1042347Y1029095D01*
X1043350Y1025788D01*
X1043688Y1022350D01*
X1043350Y1018912D01*
X1042347Y1015605D01*
X1040718Y1012558D01*
X1038526Y1009887D01*
X1035855Y1007695D01*
X1032808Y1006067D01*
X1029502Y1005064D01*
X1026063Y1004725D01*
X981458D01*
Y793430D01*
X1036260Y738629D01*
X1038452Y735958D01*
X1040080Y732911D01*
X1041083Y729605D01*
X1041422Y726166D01*
Y701314D01*
X1041083Y697875D01*
X1040080Y694569D01*
X1038452Y691522D01*
X1036260Y688851D01*
X996616Y649207D01*
X993945Y647016D01*
X990898Y645387D01*
X987592Y644384D01*
X984153Y644045D01*
X952403D01*
X948965Y644384D01*
X945659Y645387D01*
X942611Y647016D01*
X939941Y649207D01*
X881603Y707545D01*
X807808D01*
Y354382D01*
X894510D01*
X917081Y376953D01*
X919752Y379145D01*
X922799Y380773D01*
X926105Y381776D01*
X929543Y382115D01*
X1029873D01*
X1033312Y381776D01*
X1036618Y380773D01*
X1039665Y379145D01*
X1042336Y376953D01*
X1044528Y374282D01*
X1046157Y371235D01*
X1047160Y367928D01*
X1047498Y364490D01*
X1047160Y361052D01*
X1046157Y357745D01*
X1044528Y354698D01*
X1042336Y352027D01*
X1039665Y349836D01*
X1036618Y348207D01*
X1033312Y347204D01*
X1029873Y346865D01*
X936844D01*
X914273Y324294D01*
X911602Y322102D01*
X908555Y320474D01*
X905249Y319471D01*
X901810Y319132D01*
X901810Y319132D01*
X810831D01*
X803746Y312047D01*
X801075Y309855D01*
X798028Y308227D01*
X794722Y307224D01*
X791283Y306885D01*
X677423D01*
X673985Y307224D01*
X670679Y308227D01*
X667632Y309855D01*
X664961Y312047D01*
X614903Y362105D01*
X485202D01*
X482132Y361174D01*
X478693Y360835D01*
X352757D01*
X349319Y361174D01*
X346012Y362177D01*
X342965Y363806D01*
X340294Y365997D01*
X322721Y383571D01*
X322721Y383571D01*
X320529Y386242D01*
X318900Y389289D01*
X317897Y392595D01*
X317558Y396034D01*
X317558Y396034D01*
Y521970D01*
Y686006D01*
X317558Y686006D01*
X317897Y689445D01*
X318900Y692751D01*
X320529Y695798D01*
X322721Y698469D01*
X322721Y698469D01*
X340294Y716043D01*
X342965Y718234D01*
X346012Y719863D01*
X349319Y720866D01*
X352757Y721205D01*
X519859D01*
X527108Y728454D01*
Y810260D01*
X527447Y813698D01*
X528450Y817005D01*
X530079Y820052D01*
X532271Y822723D01*
X532271Y822723D01*
X550051Y840503D01*
X552721Y842694D01*
X555769Y844323D01*
X559075Y845326D01*
X562513Y845665D01*
X565411D01*
X565937Y846935D01*
X538957Y873915D01*
X377731D01*
X377300Y872645D01*
X377990Y872116D01*
X379618Y869994D01*
X380642Y867522D01*
X380991Y864870D01*
X380642Y862218D01*
X379618Y859746D01*
X377990Y857624D01*
X375867Y855995D01*
X373396Y854971D01*
X370743Y854622D01*
X368091Y854971D01*
X365620Y855995D01*
X363497Y857624D01*
X361869Y859746D01*
X360845Y862218D01*
X360496Y864870D01*
X360845Y867522D01*
X361869Y869994D01*
X363497Y872116D01*
X365333Y873525D01*
X365279Y874868D01*
X363999Y875257D01*
X360951Y876886D01*
X358281Y879077D01*
X356089Y881748D01*
X354460Y884795D01*
X353457Y888102D01*
X353119Y891540D01*
X353457Y894978D01*
X354460Y898285D01*
X356089Y901332D01*
X358281Y904003D01*
X360951Y906195D01*
X363999Y907823D01*
X367305Y908826D01*
X370743Y909165D01*
X546257D01*
X546257Y909165D01*
X549696Y908826D01*
X553002Y907823D01*
X556049Y906195D01*
X558720Y904003D01*
X596766Y865957D01*
X598958Y863286D01*
X600587Y860239D01*
X601590Y856932D01*
X601928Y853494D01*
Y833889D01*
X602659Y831478D01*
X602998Y828040D01*
X602659Y824602D01*
X601657Y821295D01*
X600028Y818248D01*
X597836Y815577D01*
X595165Y813385D01*
X592118Y811757D01*
X588812Y810754D01*
X585373Y810415D01*
X569814D01*
X562358Y802960D01*
Y721154D01*
X562020Y717715D01*
X561017Y714409D01*
X559388Y711362D01*
X557196Y708691D01*
X539622Y691117D01*
X539622Y691117D01*
X536952Y688925D01*
X533904Y687297D01*
X530598Y686294D01*
X527160Y685955D01*
X527160Y685955D01*
X387013D01*
X386527Y684782D01*
X389556Y681753D01*
X391748Y679082D01*
X393377Y676035D01*
X394380Y672728D01*
X394718Y669290D01*
Y641350D01*
X394380Y637912D01*
X393377Y634605D01*
X391748Y631558D01*
X389556Y628887D01*
X386885Y626696D01*
X383838Y625067D01*
X380532Y624064D01*
X377093Y623725D01*
X373655Y624064D01*
X370349Y625067D01*
X367301Y626696D01*
X364631Y628887D01*
X362439Y631558D01*
X360810Y634605D01*
X359807Y637912D01*
X359468Y641350D01*
Y661990D01*
X353982Y667477D01*
X352808Y666991D01*
Y539595D01*
X375823D01*
X375823Y539595D01*
X375824Y539595D01*
X610511D01*
X622255Y551339D01*
Y561118D01*
X620985Y561371D01*
X620457Y560096D01*
X618447Y557476D01*
X615827Y555466D01*
X612777Y554203D01*
X609503Y553772D01*
X606230Y554203D01*
X605737Y554407D01*
X587234D01*
X585488Y553067D01*
X582437Y551803D01*
X579164Y551372D01*
X493733D01*
Y546300D01*
X463653D01*
Y576380D01*
X481721D01*
X483914Y576669D01*
X483914Y576669D01*
X572462D01*
Y622037D01*
X572462Y622037D01*
X572893Y625311D01*
X574157Y628361D01*
X576167Y630981D01*
X576167Y630981D01*
X650195Y705009D01*
Y724548D01*
X648881Y727007D01*
X648021Y729842D01*
X647731Y732790D01*
X648021Y735738D01*
X648881Y738573D01*
X650277Y741186D01*
X652157Y743476D01*
X654447Y745356D01*
X657060Y746752D01*
X659895Y747612D01*
X662843Y747903D01*
X665792Y747612D01*
X668627Y746752D01*
X671239Y745356D01*
X673530Y743476D01*
X675409Y741186D01*
X676806Y738573D01*
X677666Y735738D01*
X677956Y732790D01*
X677666Y729842D01*
X676806Y727007D01*
X675491Y724548D01*
Y699770D01*
X675492Y699770D01*
X675061Y696496D01*
X673797Y693446D01*
X671787Y690826D01*
X597758Y616798D01*
Y579703D01*
X608868D01*
X612142Y579272D01*
X615192Y578009D01*
X617812Y575999D01*
X617812Y575998D01*
X618447Y575364D01*
X620457Y572744D01*
X621516Y570187D01*
X622891D01*
X623950Y572744D01*
X625960Y575364D01*
X628579Y577374D01*
X631630Y578637D01*
X634903Y579068D01*
X638177Y578637D01*
X641227Y577374D01*
X643847Y575364D01*
X645857Y572744D01*
X647121Y569694D01*
X647551Y566420D01*
Y546100D01*
X647552Y546100D01*
X647121Y542826D01*
X645857Y539776D01*
X643847Y537156D01*
X628369Y521679D01*
X628060Y518532D01*
X627057Y515225D01*
X625428Y512178D01*
X623236Y509507D01*
X620565Y507315D01*
X617518Y505687D01*
X614212Y504684D01*
X610773Y504345D01*
X394718D01*
Y481330D01*
X394380Y477892D01*
X393377Y474585D01*
X391748Y471538D01*
X389556Y468867D01*
X386885Y466675D01*
X383838Y465047D01*
X380532Y464044D01*
X377093Y463705D01*
X373655Y464044D01*
X370349Y465047D01*
X367301Y466675D01*
X364631Y468867D01*
X362439Y471538D01*
X360810Y474585D01*
X359807Y477892D01*
X359468Y481330D01*
Y504345D01*
X352808D01*
Y403334D01*
X360057Y396085D01*
X472185D01*
X475255Y397016D01*
X478693Y397355D01*
X622203D01*
X625642Y397016D01*
X628948Y396013D01*
X631995Y394384D01*
X634666Y392193D01*
X684724Y342135D01*
X772559D01*
Y725170D01*
X772897Y728608D01*
X773900Y731915D01*
X775529Y734962D01*
X777721Y737633D01*
X780391Y739825D01*
X783439Y741453D01*
X786745Y742456D01*
X790183Y742795D01*
X888903D01*
X892342Y742456D01*
X895648Y741453D01*
X898695Y739825D01*
X901366Y737633D01*
X959704Y679295D01*
X976853D01*
X1006172Y708614D01*
Y718866D01*
X951371Y773667D01*
X949179Y776338D01*
X947550Y779385D01*
X946547Y782692D01*
X946208Y786130D01*
X946208Y786130D01*
Y1004725D01*
X696126D01*
X683163Y991763D01*
Y989330D01*
X680362D01*
X679327Y988536D01*
X676277Y987273D01*
X673003Y986842D01*
X669730Y987273D01*
X666679Y988536D01*
X665645Y989330D01*
X662843D01*
Y992132D01*
X662050Y993166D01*
X660786Y996216D01*
X660355Y999490D01*
X660786Y1002764D01*
X662050Y1005814D01*
X662843Y1006848D01*
Y1009650D01*
X665276D01*
X678267Y1022641D01*
X678577Y1025788D01*
X679580Y1029095D01*
X681209Y1032142D01*
X683401Y1034813D01*
X686071Y1037004D01*
X689119Y1038633D01*
X692425Y1039636D01*
X695863Y1039975D01*
D02*
G37*
G36*
X463653Y942140D02*
X493733D01*
Y912060D01*
X463653D01*
Y942140D01*
D02*
G37*
G36*
X478693Y859663D02*
X481642Y859372D01*
X484477Y858512D01*
X487090Y857116D01*
X489380Y855236D01*
X491259Y852946D01*
X492656Y850333D01*
X493516Y847498D01*
X493806Y844550D01*
X493516Y841602D01*
X492656Y838767D01*
X491259Y836154D01*
X489380Y833864D01*
X487090Y831984D01*
X484477Y830588D01*
X481642Y829728D01*
X478693Y829437D01*
X475745Y829728D01*
X472910Y830588D01*
X470297Y831984D01*
X468007Y833864D01*
X466128Y836154D01*
X464731Y838767D01*
X463871Y841602D01*
X463581Y844550D01*
X463871Y847498D01*
X464731Y850333D01*
X466128Y852946D01*
X468007Y855236D01*
X470297Y857116D01*
X472910Y858512D01*
X475745Y859372D01*
X478693Y859663D01*
D02*
G37*
G36*
X1026063Y990445D02*
X1050193D01*
X1053632Y990106D01*
X1056938Y989103D01*
X1059985Y987475D01*
X1062656Y985283D01*
X1086786Y961153D01*
X1088978Y958482D01*
X1090607Y955435D01*
X1091609Y952128D01*
X1091948Y948690D01*
Y842010D01*
X1091609Y838572D01*
X1090607Y835265D01*
X1088978Y832218D01*
X1086786Y829547D01*
X1075356Y818117D01*
X1074123Y817106D01*
Y811730D01*
X1044043D01*
Y841810D01*
X1049419D01*
X1050431Y843043D01*
X1056699Y849311D01*
Y941389D01*
X1042893Y955195D01*
X1026063D01*
X1022625Y955534D01*
X1019319Y956537D01*
X1016272Y958166D01*
X1013601Y960357D01*
X1011409Y963028D01*
X1009780Y966075D01*
X1008777Y969382D01*
X1008438Y972820D01*
X1008777Y976258D01*
X1009780Y979565D01*
X1011409Y982612D01*
X1013601Y985283D01*
X1016272Y987475D01*
X1019319Y989103D01*
X1022625Y990106D01*
X1026063Y990445D01*
D02*
G37*
G36*
X1010823Y940915D02*
X1026063D01*
X1029502Y940576D01*
X1032808Y939573D01*
X1035134Y938330D01*
X1041103D01*
Y932361D01*
X1042347Y930035D01*
X1043350Y926728D01*
X1043688Y923290D01*
X1043350Y919852D01*
X1042347Y916545D01*
X1041103Y914219D01*
Y908250D01*
X1035134D01*
X1032808Y907007D01*
X1029502Y906004D01*
X1026063Y905665D01*
X1019558D01*
Y807401D01*
X1032094Y794865D01*
X1059083D01*
X1060353Y794740D01*
X1061623Y794865D01*
X1065062Y794526D01*
X1068368Y793523D01*
X1071415Y791895D01*
X1074086Y789703D01*
X1091866Y771923D01*
X1094058Y769252D01*
X1095687Y766205D01*
X1096690Y762898D01*
X1097028Y759460D01*
Y327660D01*
X1096690Y324222D01*
X1095687Y320915D01*
X1094058Y317868D01*
X1091866Y315197D01*
X1079166Y302497D01*
X1076495Y300306D01*
X1073448Y298677D01*
X1070142Y297674D01*
X1066703Y297335D01*
X1066703Y297335D01*
X1029873D01*
X1026435Y297674D01*
X1023129Y298677D01*
X1020803Y299920D01*
X1014833D01*
Y305075D01*
X1013023Y306885D01*
X971283D01*
X967845Y307224D01*
X964539Y308227D01*
X961491Y309855D01*
X958821Y312047D01*
X956629Y314718D01*
X955000Y317765D01*
X953997Y321072D01*
X953659Y324510D01*
X953997Y327948D01*
X955000Y331255D01*
X956629Y334302D01*
X958821Y336973D01*
X961491Y339165D01*
X964539Y340793D01*
X967845Y341796D01*
X971283Y342135D01*
X1020323D01*
X1020323Y342135D01*
X1023762Y341796D01*
X1027068Y340793D01*
X1030115Y339165D01*
X1032786Y336973D01*
X1037174Y332585D01*
X1059403D01*
X1061778Y334961D01*
Y752160D01*
X1054323Y759615D01*
X1024793D01*
X1021355Y759954D01*
X1018049Y760957D01*
X1015002Y762586D01*
X1012331Y764777D01*
X989471Y787637D01*
X987279Y790308D01*
X985650Y793355D01*
X984647Y796662D01*
X984308Y800100D01*
Y914400D01*
X984308Y914400D01*
X984647Y917838D01*
X985650Y921145D01*
X987279Y924192D01*
X989471Y926863D01*
X998361Y935753D01*
X1001031Y937944D01*
X1004079Y939573D01*
X1007385Y940576D01*
X1010823Y940915D01*
D02*
G37*
G36*
X478693Y810133D02*
X481642Y809842D01*
X484477Y808982D01*
X487090Y807586D01*
X489380Y805706D01*
X491259Y803416D01*
X492656Y800803D01*
X493516Y797968D01*
X493806Y795020D01*
X493516Y792072D01*
X492656Y789237D01*
X491259Y786624D01*
X489380Y784334D01*
X487090Y782454D01*
X484477Y781058D01*
X481642Y780198D01*
X478693Y779907D01*
X475745Y780198D01*
X472910Y781058D01*
X470297Y782454D01*
X468007Y784334D01*
X466128Y786624D01*
X464731Y789237D01*
X463871Y792072D01*
X463581Y795020D01*
X463871Y797968D01*
X464731Y800803D01*
X466128Y803416D01*
X468007Y805706D01*
X470297Y807586D01*
X472910Y808982D01*
X475745Y809842D01*
X478693Y810133D01*
D02*
G37*
G36*
X707293Y985468D02*
X710567Y985037D01*
X713617Y983774D01*
X716237Y981764D01*
X723857Y974144D01*
X725867Y971524D01*
X727131Y968474D01*
X727562Y965200D01*
X727561Y965200D01*
Y779317D01*
X729568Y776872D01*
X729749Y776533D01*
X731005Y776347D01*
X734201Y779543D01*
X736871Y781734D01*
X739919Y783363D01*
X743225Y784366D01*
X746663Y784705D01*
X928713D01*
X932152Y784366D01*
X935458Y783363D01*
X938505Y781734D01*
X941176Y779543D01*
X983746Y736973D01*
X985938Y734302D01*
X987567Y731255D01*
X988569Y727948D01*
X988908Y724510D01*
X988569Y721072D01*
X987567Y717765D01*
X985938Y714718D01*
X983746Y712047D01*
X981075Y709855D01*
X978028Y708227D01*
X974722Y707224D01*
X971283Y706885D01*
X967845Y707224D01*
X964539Y708227D01*
X961491Y709855D01*
X958821Y712047D01*
X921413Y749455D01*
X753964D01*
X729998Y725490D01*
Y446834D01*
X729660Y443395D01*
X728657Y440089D01*
X727028Y437042D01*
X724836Y434371D01*
X707262Y416797D01*
X707262Y416797D01*
X704592Y414605D01*
X701544Y412977D01*
X698238Y411974D01*
X694800Y411635D01*
X694799Y411635D01*
X482503D01*
X479065Y411974D01*
X475759Y412977D01*
X474951Y413409D01*
X472910Y414028D01*
X470297Y415424D01*
X468007Y417304D01*
X466128Y419594D01*
X464731Y422207D01*
X463871Y425042D01*
X463581Y427990D01*
X463871Y430938D01*
X464731Y433773D01*
X466128Y436386D01*
X466978Y437422D01*
X467849Y439052D01*
X470041Y441723D01*
X472711Y443914D01*
X475759Y445543D01*
X479065Y446546D01*
X482503Y446885D01*
X687499D01*
X694749Y454134D01*
Y732790D01*
X695087Y736228D01*
X696090Y739535D01*
X697333Y741861D01*
Y747830D01*
X702488D01*
X705646Y750988D01*
X705460Y752245D01*
X705122Y752426D01*
X702451Y754617D01*
X696183Y760885D01*
X585373D01*
X581935Y761224D01*
X578629Y762227D01*
X575582Y763856D01*
X572911Y766047D01*
X570719Y768718D01*
X569090Y771765D01*
X568087Y775072D01*
X567748Y778510D01*
X568087Y781948D01*
X569090Y785255D01*
X570719Y788302D01*
X572911Y790973D01*
X575582Y793165D01*
X578629Y794793D01*
X581935Y795796D01*
X585373Y796135D01*
X702265D01*
Y959961D01*
X702054Y960172D01*
X673003D01*
X669730Y960603D01*
X666679Y961866D01*
X664060Y963876D01*
X662050Y966496D01*
X660786Y969546D01*
X660355Y972820D01*
X660786Y976094D01*
X662050Y979144D01*
X664060Y981764D01*
X666679Y983774D01*
X669730Y985037D01*
X673003Y985468D01*
X707293D01*
X707293Y985468D01*
D02*
G37*
G36*
X403763Y850848D02*
X407037Y850417D01*
X410087Y849154D01*
X412707Y847144D01*
X416517Y843334D01*
X418527Y840714D01*
X419790Y837664D01*
X420222Y834390D01*
X420221Y834390D01*
Y790099D01*
X450912Y759408D01*
X463653D01*
Y760530D01*
X493733D01*
Y730450D01*
X463653D01*
Y734112D01*
X445673D01*
X445673Y734112D01*
X442400Y734543D01*
X439349Y735806D01*
X436730Y737816D01*
X398630Y775916D01*
X398630Y775916D01*
X396620Y778536D01*
X395356Y781586D01*
X394925Y784860D01*
Y825552D01*
X370743D01*
X367470Y825983D01*
X364419Y827246D01*
X363385Y828040D01*
X360583D01*
Y830842D01*
X359790Y831876D01*
X358526Y834926D01*
X358095Y838200D01*
X358526Y841474D01*
X359790Y844524D01*
X360583Y845558D01*
Y848360D01*
X363385D01*
X364419Y849154D01*
X367470Y850417D01*
X370743Y850848D01*
X403763D01*
X403763Y850848D01*
D02*
G37*
G36*
X570333Y744020D02*
X600413D01*
Y713940D01*
X595522D01*
Y706160D01*
X595522Y706160D01*
X595091Y702886D01*
X593827Y699836D01*
X591817Y697216D01*
X547327Y652726D01*
X544707Y650716D01*
X541657Y649453D01*
X538383Y649022D01*
X488537D01*
X487090Y647834D01*
X484477Y646438D01*
X481642Y645578D01*
X478693Y645287D01*
X475745Y645578D01*
X472910Y646438D01*
X470297Y647834D01*
X468007Y649714D01*
X466128Y652004D01*
X464731Y654617D01*
X463871Y657452D01*
X463581Y660400D01*
X463871Y663348D01*
X464731Y666183D01*
X466128Y668796D01*
X468007Y671086D01*
X470297Y672966D01*
X472910Y674362D01*
X475745Y675222D01*
X478693Y675513D01*
X481642Y675222D01*
X484477Y674362D01*
X484559Y674318D01*
X533144D01*
X570225Y711399D01*
Y726480D01*
X570225Y726480D01*
X570333Y727302D01*
Y744020D01*
D02*
G37*
G36*
X478693Y625983D02*
X481642Y625692D01*
X484477Y624832D01*
X487090Y623436D01*
X489380Y621556D01*
X491259Y619266D01*
X492656Y616653D01*
X493516Y613818D01*
X493806Y610870D01*
X493516Y607922D01*
X492656Y605087D01*
X491259Y602474D01*
X489380Y600184D01*
X487090Y598304D01*
X484477Y596908D01*
X481642Y596048D01*
X478693Y595757D01*
X475745Y596048D01*
X472910Y596908D01*
X470451Y598222D01*
X430592D01*
X415247Y582877D01*
X415247Y582876D01*
X412627Y580866D01*
X409577Y579603D01*
X406303Y579172D01*
X392133D01*
Y576780D01*
X362053D01*
Y606860D01*
X392133D01*
Y604468D01*
X401064D01*
X416410Y619814D01*
X419029Y621824D01*
X422080Y623087D01*
X425353Y623518D01*
X425354Y623518D01*
X470451D01*
X472910Y624832D01*
X475745Y625692D01*
X478693Y625983D01*
D02*
G37*
G36*
X651763Y574960D02*
X668843D01*
Y557880D01*
X651763D01*
Y574960D01*
D02*
G37*
G36*
X478693Y492633D02*
X481642Y492342D01*
X484477Y491482D01*
X487090Y490086D01*
X489380Y488206D01*
X491259Y485916D01*
X492656Y483303D01*
X493516Y480468D01*
X493806Y477520D01*
X493516Y474572D01*
X492656Y471737D01*
X491259Y469124D01*
X489380Y466834D01*
X487090Y464954D01*
X484477Y463558D01*
X481642Y462698D01*
X478693Y462407D01*
X475745Y462698D01*
X472910Y463558D01*
X470451Y464872D01*
X443292D01*
X401277Y422856D01*
X401277Y422856D01*
X398657Y420846D01*
X395607Y419583D01*
X392333Y419152D01*
X392133D01*
Y416760D01*
X362053D01*
Y446840D01*
X389486D01*
X429110Y486464D01*
X431729Y488474D01*
X434780Y489737D01*
X438053Y490168D01*
X438054Y490168D01*
X470451D01*
X472910Y491482D01*
X475745Y492342D01*
X478693Y492633D01*
D02*
G37*
%LPD*%
D10*
X963833Y786130D02*
Y1022350D01*
X1023797Y701314D02*
Y726166D01*
Y701314D02*
X984153Y661670D01*
X1023797Y726166D02*
X963833Y786130D01*
X335183Y396034D02*
Y521970D01*
X352757Y378460D02*
X335183Y396034D01*
X478693Y378460D02*
X352757D01*
X1026063Y1022350D02*
X963833D01*
X695863D01*
X377093Y669290D02*
X352757Y693626D01*
X377093Y641350D02*
Y669290D01*
X790183Y336757D02*
Y725170D01*
X377093Y521970D02*
X335183D01*
X622203Y379730D02*
X478693D01*
X352757Y693626D02*
Y703580D01*
X610773Y521970D02*
X377093D01*
X790183Y325170D02*
Y336757D01*
X352757Y703580D02*
X335183Y686006D01*
X791283Y324510D02*
X677423D01*
X377093Y481330D02*
Y520700D01*
X375823Y521970D01*
X335183D02*
Y686006D01*
X544733Y721154D02*
Y810260D01*
Y721154D02*
X527160Y703580D01*
X352757D01*
X546257Y891540D02*
X370743D01*
X584303Y853494D02*
X546257Y891540D01*
X584303Y829110D02*
Y853494D01*
X928713Y767080D02*
X746663D01*
X971283Y724510D02*
X928713Y767080D01*
X888903Y725170D02*
X790183D01*
X952403Y661670D02*
X888903Y725170D01*
X984153Y661670D02*
X952403D01*
X746663Y767080D02*
X714913Y735330D01*
Y767080D02*
X703483Y778510D01*
X1026063Y923290D02*
X1010823D01*
X1001933Y914400D01*
Y800100D02*
Y914400D01*
X1024793Y777240D02*
X1001933Y800100D01*
X1059083Y777240D02*
X1024793D01*
X1074323Y842010D02*
X1062893Y830580D01*
X585373Y828040D02*
X562513D01*
X544733Y810260D01*
X703483Y778510D02*
X585373D01*
X712373Y446834D02*
X694800Y429260D01*
X712373Y446834D02*
Y732790D01*
X694800Y429260D02*
X482503D01*
X677423Y324510D02*
X622203Y379730D01*
X1079403Y759460D02*
X1061623Y777240D01*
X1079403Y327660D02*
Y759460D01*
Y327660D02*
X1066703Y314960D01*
X1029873D01*
X1050193Y972820D02*
X1026063D01*
X1074323Y948690D02*
X1050193Y972820D01*
X1074323Y842010D02*
Y948690D01*
X1029873Y364490D02*
X929543D01*
X901810Y336757D01*
X1029873Y314960D02*
X1020323Y324510D01*
X971283D01*
X803530Y336757D02*
X791283Y324510D01*
X901810Y336757D02*
X803530D01*
D11*
X478693Y610870D02*
X425353D01*
X406303Y591820D02*
X377093D01*
X425353Y610870D02*
X406303Y591820D01*
X392333Y431800D02*
X377093D01*
X438053Y477520D02*
X392333Y431800D01*
X478693Y477520D02*
X438053D01*
X585373Y728980D02*
X582873Y726480D01*
Y706160D02*
Y726480D01*
Y706160D02*
X538383Y661670D01*
X582198Y567055D02*
X579164Y564020D01*
X585110Y569967D02*
X582198Y567055D01*
X608868D02*
X582198D01*
X609503Y566420D02*
X608868Y567055D01*
X634903Y546100D02*
Y566420D01*
Y546100D02*
X610773Y521970D01*
X403763Y838200D02*
X370743D01*
X407573Y834390D02*
X403763Y838200D01*
X445673Y746760D02*
X407573Y784860D01*
Y834390D01*
X476153Y746760D02*
X445673D01*
X714913Y767080D02*
Y965200D01*
X601883Y977900D02*
X476153D01*
X633633Y946150D02*
X601883Y977900D01*
X673003Y946150D02*
X633633D01*
X707293Y972820D02*
X673003D01*
X714913Y965200D02*
X707293Y972820D01*
X695863Y1022350D02*
X673003Y999490D01*
X538383Y661670D02*
X482503D01*
X483914Y564020D02*
X482503Y562610D01*
X579164Y564020D02*
X483914D01*
X585110Y569967D02*
Y622037D01*
X662843Y699770D02*
X585110Y622037D01*
X662843Y699770D02*
Y732790D01*
D12*
X585373Y828040D02*
X584303Y829110D01*
X714913Y735330D02*
Y767080D01*
Y735330D02*
X712373Y732790D01*
X1061623Y777240D02*
X1059083D01*
X1062893Y830580D02*
X1059083Y826770D01*
D13*
D03*
X478693Y378460D02*
D03*
Y561340D02*
D03*
Y745490D02*
D03*
Y927100D02*
D03*
X1026063Y923290D02*
D03*
X377093Y591820D02*
D03*
Y431800D02*
D03*
X585373Y728980D02*
D03*
X1029873Y314960D02*
D03*
D14*
X1059083Y777240D02*
D03*
X478693Y477520D02*
D03*
Y427990D02*
D03*
Y660400D02*
D03*
Y610870D02*
D03*
Y844550D02*
D03*
Y795020D02*
D03*
Y1026160D02*
D03*
Y976630D02*
D03*
X1026063Y1022350D02*
D03*
Y972820D02*
D03*
X377093Y641350D02*
D03*
Y481330D02*
D03*
X662843Y732790D02*
D03*
X585373Y828040D02*
D03*
Y778510D02*
D03*
X1029873Y364490D02*
D03*
X970183Y325170D02*
D03*
X790183D02*
D03*
Y725170D02*
D03*
X970183D02*
D03*
D15*
X673003Y972820D02*
D03*
Y946150D02*
D03*
X370743Y891540D02*
D03*
Y864870D02*
D03*
D16*
X673003Y999490D02*
D03*
X370743Y838200D02*
D03*
D17*
X712373Y732790D02*
D03*
D18*
X660303Y566420D02*
D03*
D19*
X634903D02*
D03*
X609503D02*
D03*
M02*
