G04*
G04 #@! TF.GenerationSoftware,Altium Limited,Altium Designer,20.2.4 (192)*
G04*
G04 Layer_Color=2752767*
%FSLAX44Y44*%
%MOMM*%
G71*
G04*
G04 #@! TF.SameCoordinates,2BC5D196-FD38-499A-9A47-3CCA58AC4221*
G04*
G04*
G04 #@! TF.FilePolarity,Positive*
G04*
G01*
G75*
%ADD10C,0.0508*%
%ADD11C,0.0677*%
D10*
X1061115Y824738D02*
Y828802D01*
X1057051D01*
Y824738D01*
X1061115D01*
Y775208D02*
Y779272D01*
X1057051D01*
Y775208D01*
X1061115D01*
X480725Y475488D02*
Y479552D01*
X476661D01*
Y475488D01*
X480725D01*
Y425958D02*
Y430022D01*
X476661D01*
Y425958D01*
X480725D01*
Y376428D02*
Y380492D01*
X476661D01*
Y376428D01*
X480725D01*
Y658368D02*
Y662432D01*
X476661D01*
Y658368D01*
X480725D01*
Y608838D02*
Y612902D01*
X476661D01*
Y608838D01*
X480725D01*
Y559308D02*
Y563372D01*
X476661D01*
Y559308D01*
X480725D01*
Y842518D02*
Y846582D01*
X476661D01*
Y842518D01*
X480725D01*
Y792988D02*
Y797052D01*
X476661D01*
Y792988D01*
X480725D01*
Y743458D02*
Y747522D01*
X476661D01*
Y743458D01*
X480725D01*
Y1024128D02*
Y1028192D01*
X476661D01*
Y1024128D01*
X480725D01*
Y974598D02*
Y978662D01*
X476661D01*
Y974598D01*
X480725D01*
Y925068D02*
Y929132D01*
X476661D01*
Y925068D01*
X480725D01*
X1028095Y1020318D02*
Y1024382D01*
X1024031D01*
Y1020318D01*
X1028095D01*
Y970788D02*
Y974852D01*
X1024031D01*
Y970788D01*
X1028095D01*
Y921258D02*
Y925322D01*
X1024031D01*
Y921258D01*
X1028095D01*
X379125Y639318D02*
Y643382D01*
X375061D01*
Y639318D01*
X379125D01*
Y589788D02*
Y593852D01*
X375061D01*
Y589788D01*
X379125D01*
Y479298D02*
Y483362D01*
X375061D01*
Y479298D01*
X379125D01*
Y429768D02*
Y433832D01*
X375061D01*
Y429768D01*
X379125D01*
X664875Y730758D02*
Y734822D01*
X660811D01*
Y730758D01*
X664875D01*
X714405D02*
Y734822D01*
X710341D01*
Y730758D01*
X714405D01*
X587405Y826008D02*
Y830072D01*
X583341D01*
Y826008D01*
X587405D01*
Y776478D02*
Y780542D01*
X583341D01*
Y776478D01*
X587405D01*
Y726948D02*
Y731012D01*
X583341D01*
Y726948D01*
X587405D01*
X1031905Y362458D02*
Y366522D01*
X1027841D01*
Y362458D01*
X1031905D01*
Y312928D02*
Y316992D01*
X1027841D01*
Y312928D01*
X1031905D01*
X970183Y323138D02*
X972215Y327202D01*
X968151D01*
X970183Y323138D01*
X790183D02*
X792215Y327202D01*
X788151D01*
X790183Y323138D01*
Y723138D02*
X792215Y727202D01*
X788151D01*
X790183Y723138D01*
X970183D02*
X972215Y727202D01*
X968151D01*
X970183Y723138D01*
X660303Y564388D02*
X659287Y565404D01*
X658271D01*
X659287Y566420D01*
X658271Y567436D01*
X659287D01*
X660303Y568452D01*
X661319Y567436D01*
X662335D01*
X661319Y566420D01*
X662335Y565404D01*
X661319D01*
X660303Y564388D01*
X634903D02*
X633887Y565404D01*
X632871D01*
X633887Y566420D01*
X632871Y567436D01*
X633887D01*
X634903Y568452D01*
X635919Y567436D01*
X636935D01*
X635919Y566420D01*
X636935Y565404D01*
X635919D01*
X634903Y564388D01*
X609503D02*
X608487Y565404D01*
X607471D01*
X608487Y566420D01*
X607471Y567436D01*
X608487D01*
X609503Y568452D01*
X610519Y567436D01*
X611535D01*
X610519Y566420D01*
X611535Y565404D01*
X610519D01*
X609503Y564388D01*
D11*
X670971Y972820D02*
G03*
X670971Y972820I2032J0D01*
G01*
Y999490D02*
G03*
X670971Y999490I2032J0D01*
G01*
Y946150D02*
G03*
X670971Y946150I2032J0D01*
G01*
X368711Y891540D02*
G03*
X368711Y891540I2032J0D01*
G01*
Y838200D02*
G03*
X368711Y838200I2032J0D01*
G01*
Y864870D02*
G03*
X368711Y864870I2032J0D01*
G01*
M02*
