%TF.GenerationSoftware,Altium Limited,Altium Designer,20.2.4 (192)*%
G04 Layer_Physical_Order=2*
G04 Layer_Color=16711680*
%FSLAX45Y45*%
%MOMM*%
%TF.SameCoordinates,FF6026EA-4B4A-4AB5-BBF0-9A726D397CA4*%
%TF.FilePolarity,Positive*%
%TF.FileFunction,Copper,L2,Bot,Signal*%
%TF.Part,Single*%
G01*
G75*
%TA.AperFunction,Conductor*%
%ADD10C,3.00000*%
%ADD11C,2.00000*%
%ADD12C,0.25400*%
%TA.AperFunction,ComponentPad*%
%ADD13R,2.50000X2.50000*%
%ADD14C,2.50000*%
%ADD15C,1.52400*%
%ADD16R,1.52400X1.52400*%
%ADD17R,2.50000X2.50000*%
%ADD18R,1.20000X1.20000*%
%ADD19C,1.20000*%
G36*
X11404600Y2717800D02*
X11391900D01*
X2955407Y2667054D01*
X2946400Y2676008D01*
Y11125200D01*
X2843833Y11227767D01*
X2848694Y11239500D01*
X11404600D01*
Y2717800D01*
D02*
G37*
%LPC*%
G36*
X9461500Y10412728D02*
X9432016Y10409824D01*
X9403666Y10401224D01*
X9377538Y10387258D01*
X9354637Y10368463D01*
X9335842Y10345562D01*
X9321876Y10319434D01*
X9313276Y10291084D01*
X9310372Y10261600D01*
X9313276Y10232116D01*
X9321876Y10203766D01*
X9335842Y10177638D01*
X9354637Y10154737D01*
X9377538Y10135942D01*
X9403666Y10121976D01*
X9432016Y10113376D01*
X9461500Y10110472D01*
X9490984Y10113376D01*
X9519334Y10121976D01*
X9545462Y10135942D01*
X9568363Y10154737D01*
X9587158Y10177638D01*
X9601124Y10203766D01*
X9609724Y10232116D01*
X9612628Y10261600D01*
X9609724Y10291084D01*
X9601124Y10319434D01*
X9587158Y10345562D01*
X9568363Y10368463D01*
X9545462Y10387258D01*
X9519334Y10401224D01*
X9490984Y10409824D01*
X9461500Y10412728D01*
D02*
G37*
G36*
Y9917428D02*
X9432016Y9914524D01*
X9403666Y9905924D01*
X9402840Y9905482D01*
X8229602D01*
X8229600Y9905482D01*
X8196864Y9901172D01*
X8166359Y9888537D01*
X8140164Y9868436D01*
X7859709Y9587982D01*
X7518400D01*
X7485664Y9583672D01*
X7455159Y9571037D01*
X7428964Y9550936D01*
X7408863Y9524741D01*
X7396228Y9494236D01*
X7391918Y9461500D01*
X7396228Y9428764D01*
X7408863Y9398259D01*
X7428964Y9372064D01*
X7455159Y9351963D01*
X7485664Y9339328D01*
X7518400Y9335018D01*
X7912098D01*
X7912100Y9335018D01*
X7944836Y9339328D01*
X7975341Y9351963D01*
X8001536Y9372064D01*
X8281991Y9652518D01*
X9363067D01*
X9377538Y9640642D01*
X9403666Y9626676D01*
X9432016Y9618076D01*
X9461500Y9615172D01*
X9490984Y9618076D01*
X9519334Y9626676D01*
X9545462Y9640642D01*
X9568363Y9659437D01*
X9587158Y9682338D01*
X9601124Y9708466D01*
X9609724Y9736816D01*
X9612628Y9766300D01*
X9612235Y9770287D01*
X9613382Y9779000D01*
X9609072Y9811736D01*
X9596437Y9842241D01*
X9576336Y9868436D01*
X9550141Y9888537D01*
X9549111Y9888963D01*
X9545462Y9891958D01*
X9519334Y9905924D01*
X9490984Y9914524D01*
X9461500Y9917428D01*
D02*
G37*
G36*
X7289800Y10399749D02*
X3987800D01*
X3953416Y10396362D01*
X3920353Y10386333D01*
X3889881Y10370045D01*
X3863173Y10348127D01*
X3841255Y10321419D01*
X3824967Y10290947D01*
X3814938Y10257884D01*
X3811551Y10223500D01*
X3814938Y10189116D01*
X3824967Y10156053D01*
X3841255Y10125581D01*
X3863173Y10098873D01*
X3889881Y10076955D01*
X3920353Y10060667D01*
X3953416Y10050638D01*
X3987800Y10047251D01*
X4433851D01*
Y7934305D01*
X3885837Y7386291D01*
X3863919Y7359582D01*
X3847631Y7329111D01*
X3837602Y7296048D01*
X3834215Y7261664D01*
Y7013136D01*
X3837602Y6978752D01*
X3847631Y6945689D01*
X3863919Y6915218D01*
X3885837Y6888509D01*
X4282273Y6492073D01*
X4308981Y6470155D01*
X4339453Y6453867D01*
X4372516Y6443838D01*
X4406900Y6440451D01*
X4724400D01*
X4758784Y6443838D01*
X4791847Y6453867D01*
X4822319Y6470155D01*
X4849027Y6492073D01*
X5432405Y7075451D01*
X6170351D01*
Y3543818D01*
X5303336D01*
X5077627Y3769527D01*
X5050919Y3791445D01*
X5020447Y3807733D01*
X4987384Y3817762D01*
X4953000Y3821149D01*
X3949700D01*
X3915316Y3817762D01*
X3882253Y3807733D01*
X3851781Y3791445D01*
X3825073Y3769527D01*
X3803155Y3742819D01*
X3786867Y3712347D01*
X3776838Y3679284D01*
X3773451Y3644900D01*
X3776838Y3610516D01*
X3786867Y3577453D01*
X3803155Y3546981D01*
X3825073Y3520273D01*
X3851781Y3498355D01*
X3882253Y3482067D01*
X3915316Y3472038D01*
X3949700Y3468651D01*
X4879995D01*
X5105704Y3242942D01*
X5132413Y3221024D01*
X5162884Y3204737D01*
X5195946Y3194707D01*
X5230331Y3191320D01*
X5230333Y3191321D01*
X6140126D01*
X6210973Y3120473D01*
X6237681Y3098555D01*
X6268153Y3082267D01*
X6301215Y3072238D01*
X6335600Y3068851D01*
X7474200D01*
X7508584Y3072238D01*
X7541647Y3082267D01*
X7572118Y3098555D01*
X7598827Y3120473D01*
X8099405Y3621051D01*
X9396413D01*
X9427116Y3611738D01*
X9461500Y3608351D01*
X10720864D01*
X10755248Y3611738D01*
X10788311Y3621767D01*
X10818783Y3638055D01*
X10845491Y3659973D01*
X11021225Y3835708D01*
X11021227Y3835709D01*
X11043146Y3862418D01*
X11059433Y3892889D01*
X11069462Y3925952D01*
X11072849Y3960336D01*
X11072849Y3960339D01*
Y5219700D01*
Y6860061D01*
X11072849Y6860064D01*
X11069462Y6894448D01*
X11059433Y6927511D01*
X11043146Y6957982D01*
X11021227Y6984691D01*
X11021225Y6984692D01*
X10845491Y7160427D01*
X10818783Y7182345D01*
X10788311Y7198633D01*
X10755248Y7208662D01*
X10720864Y7212049D01*
X9049840D01*
X8977349Y7284541D01*
Y8102600D01*
X8973962Y8136984D01*
X8963933Y8170048D01*
X8947645Y8200519D01*
X8925727Y8227227D01*
X8925725Y8227228D01*
X8747927Y8405027D01*
X8721219Y8426945D01*
X8690747Y8443233D01*
X8657684Y8453262D01*
X8623300Y8456649D01*
X8594322D01*
X8589062Y8469349D01*
X8858865Y8739151D01*
X10471120D01*
X10475431Y8726451D01*
X10468538Y8721162D01*
X10452252Y8699938D01*
X10442015Y8675223D01*
X10438523Y8648700D01*
X10442015Y8622177D01*
X10452252Y8597462D01*
X10468538Y8576238D01*
X10489762Y8559952D01*
X10514477Y8549715D01*
X10541000Y8546223D01*
X10567523Y8549715D01*
X10592238Y8559952D01*
X10613462Y8576238D01*
X10629748Y8597462D01*
X10639985Y8622177D01*
X10643477Y8648700D01*
X10639985Y8675223D01*
X10629748Y8699938D01*
X10613462Y8721162D01*
X10595105Y8735248D01*
X10595642Y8748683D01*
X10608447Y8752567D01*
X10638919Y8768855D01*
X10665627Y8790773D01*
X10687545Y8817481D01*
X10703833Y8847953D01*
X10713862Y8881016D01*
X10717249Y8915400D01*
X10713862Y8949784D01*
X10703833Y8982847D01*
X10687545Y9013319D01*
X10665627Y9040027D01*
X10638919Y9061945D01*
X10608447Y9078233D01*
X10575384Y9088262D01*
X10541000Y9091649D01*
X8785863D01*
X8785860Y9091649D01*
X8751476Y9088262D01*
X8718413Y9078233D01*
X8687942Y9061946D01*
X8661233Y9040027D01*
X8280773Y8659567D01*
X8258855Y8632859D01*
X8242567Y8602387D01*
X8232538Y8569324D01*
X8229151Y8534940D01*
Y8338894D01*
X8221838Y8314784D01*
X8218451Y8280400D01*
X8221838Y8246016D01*
X8231867Y8212953D01*
X8248155Y8182481D01*
X8270073Y8155773D01*
X8296781Y8133855D01*
X8327253Y8117567D01*
X8360316Y8107538D01*
X8394700Y8104151D01*
X8550295D01*
X8624851Y8029596D01*
Y7211536D01*
X8628238Y7177152D01*
X8638267Y7144089D01*
X8654555Y7113617D01*
X8676473Y7086909D01*
X8852208Y6911175D01*
X8852209Y6911173D01*
X8878918Y6889254D01*
X8909389Y6872967D01*
X8942452Y6862938D01*
X8976836Y6859551D01*
X8976839Y6859551D01*
X10378305D01*
X10383165Y6847818D01*
X10352873Y6817527D01*
X10330955Y6790819D01*
X10314667Y6760347D01*
X10304638Y6727284D01*
X10301251Y6692900D01*
Y6413500D01*
X10304638Y6379116D01*
X10314667Y6346053D01*
X10330955Y6315581D01*
X10352873Y6288873D01*
X10379581Y6266955D01*
X10410053Y6250667D01*
X10443116Y6240638D01*
X10477500Y6237251D01*
X10511884Y6240638D01*
X10544947Y6250667D01*
X10575419Y6266955D01*
X10602127Y6288873D01*
X10624045Y6315581D01*
X10640333Y6346053D01*
X10650362Y6379116D01*
X10653749Y6413500D01*
Y6619895D01*
X10708618Y6674765D01*
X10720351Y6669905D01*
Y5395949D01*
X10490203D01*
X10490200Y5395949D01*
X10490197Y5395949D01*
X8143324D01*
X8025882Y5513391D01*
Y5611183D01*
X8038582Y5613709D01*
X8043863Y5600959D01*
X8063964Y5574764D01*
X8090159Y5554663D01*
X8120664Y5542028D01*
X8153400Y5537718D01*
X8186136Y5542028D01*
X8191061Y5544068D01*
X8376091D01*
X8393555Y5530667D01*
X8424060Y5518032D01*
X8456796Y5513722D01*
X9311100D01*
Y5463000D01*
X9611900D01*
Y5763800D01*
X9431219D01*
X9409296Y5766686D01*
X9409294Y5766686D01*
X8523813D01*
Y6220367D01*
X8523813Y6220369D01*
X8519503Y6253105D01*
X8506868Y6283610D01*
X8486767Y6309806D01*
X8486766Y6309806D01*
X7746482Y7050091D01*
Y7245480D01*
X7759624Y7270066D01*
X7768224Y7298416D01*
X7771128Y7327900D01*
X7768224Y7357384D01*
X7759624Y7385734D01*
X7745658Y7411862D01*
X7726863Y7434763D01*
X7703962Y7453558D01*
X7677834Y7467524D01*
X7649484Y7476124D01*
X7620000Y7479028D01*
X7590516Y7476124D01*
X7562166Y7467524D01*
X7536038Y7453558D01*
X7513137Y7434763D01*
X7494342Y7411862D01*
X7480376Y7385734D01*
X7471776Y7357384D01*
X7468872Y7327900D01*
X7471776Y7298416D01*
X7480376Y7270066D01*
X7493518Y7245480D01*
Y6997702D01*
X7493518Y6997700D01*
X7497828Y6964964D01*
X7510463Y6934459D01*
X7530564Y6908264D01*
X8270849Y6167979D01*
Y5797032D01*
X8159750D01*
X8127014Y5792722D01*
X8096509Y5780087D01*
X8070314Y5759986D01*
X8070313Y5759985D01*
X8063964Y5753636D01*
X8043863Y5727441D01*
X8033273Y5701874D01*
X8019527D01*
X8008937Y5727441D01*
X7988836Y5753636D01*
X7962641Y5773737D01*
X7932136Y5786372D01*
X7899400Y5790682D01*
X7866664Y5786372D01*
X7836159Y5773737D01*
X7809964Y5753636D01*
X7789863Y5727441D01*
X7777228Y5696936D01*
X7772918Y5664200D01*
Y5461002D01*
X7772918Y5461000D01*
X7777228Y5428264D01*
X7789863Y5397759D01*
X7809964Y5371564D01*
X7964738Y5216789D01*
X7967838Y5185316D01*
X7977867Y5152253D01*
X7994155Y5121781D01*
X8016073Y5095073D01*
X8042781Y5073155D01*
X8073253Y5056867D01*
X8106316Y5046838D01*
X8140700Y5043451D01*
X10301251D01*
Y4813300D01*
X10304638Y4778916D01*
X10314667Y4745853D01*
X10330955Y4715381D01*
X10352873Y4688673D01*
X10379581Y4666755D01*
X10410053Y4650467D01*
X10443116Y4640438D01*
X10477500Y4637051D01*
X10511884Y4640438D01*
X10544947Y4650467D01*
X10575419Y4666755D01*
X10602127Y4688673D01*
X10624045Y4715381D01*
X10640333Y4745853D01*
X10650362Y4778916D01*
X10653749Y4813300D01*
Y5043451D01*
X10720351D01*
Y4033340D01*
X10647859Y3960849D01*
X9526587D01*
X9495884Y3970162D01*
X9461500Y3973549D01*
X8026400D01*
X7992016Y3970162D01*
X7958953Y3960133D01*
X7928481Y3943845D01*
X7901773Y3921927D01*
X7401195Y3421349D01*
X6522849D01*
Y7251700D01*
X6519462Y7286084D01*
X6509432Y7319147D01*
X6493145Y7349619D01*
X6471227Y7376327D01*
X6444518Y7398245D01*
X6414047Y7414533D01*
X6380984Y7424562D01*
X6346600Y7427949D01*
X5359400D01*
X5325016Y7424562D01*
X5291953Y7414533D01*
X5261481Y7398245D01*
X5234773Y7376327D01*
X4651395Y6792949D01*
X4479905D01*
X4186712Y7086141D01*
Y7188659D01*
X4734727Y7736673D01*
X4756645Y7763381D01*
X4772933Y7793853D01*
X4782962Y7826916D01*
X4786349Y7861300D01*
X4786349Y7861303D01*
Y10047251D01*
X7287176D01*
X7416800Y9917627D01*
Y9893300D01*
X7444816D01*
X7455159Y9885363D01*
X7485664Y9872728D01*
X7518400Y9868418D01*
X7551136Y9872728D01*
X7581641Y9885363D01*
X7591984Y9893300D01*
X7620000D01*
Y9921316D01*
X7627937Y9931659D01*
X7640572Y9962164D01*
X7644882Y9994900D01*
X7640572Y10027636D01*
X7627937Y10058141D01*
X7620000Y10068484D01*
Y10096500D01*
X7595673D01*
X7465762Y10226411D01*
X7462662Y10257884D01*
X7452633Y10290947D01*
X7436345Y10321419D01*
X7414427Y10348127D01*
X7387719Y10370045D01*
X7357247Y10386333D01*
X7324184Y10396362D01*
X7289800Y10399749D01*
D02*
G37*
G36*
X9611900Y9421400D02*
X9311100D01*
Y9120600D01*
X9611900D01*
Y9421400D01*
D02*
G37*
G36*
X9461500Y8596628D02*
X9432016Y8593724D01*
X9403666Y8585124D01*
X9377538Y8571158D01*
X9354637Y8552363D01*
X9335842Y8529462D01*
X9321876Y8503334D01*
X9313276Y8474984D01*
X9310372Y8445500D01*
X9313276Y8416016D01*
X9321876Y8387666D01*
X9335842Y8361538D01*
X9354637Y8338637D01*
X9377538Y8319842D01*
X9403666Y8305876D01*
X9432016Y8297276D01*
X9461500Y8294372D01*
X9490984Y8297276D01*
X9519334Y8305876D01*
X9545462Y8319842D01*
X9568363Y8338637D01*
X9587158Y8361538D01*
X9601124Y8387666D01*
X9609724Y8416016D01*
X9612628Y8445500D01*
X9609724Y8474984D01*
X9601124Y8503334D01*
X9587158Y8529462D01*
X9568363Y8552363D01*
X9545462Y8571158D01*
X9519334Y8585124D01*
X9490984Y8593724D01*
X9461500Y8596628D01*
D02*
G37*
G36*
X3987800Y9904449D02*
X3746500D01*
X3712116Y9901062D01*
X3679053Y9891033D01*
X3648581Y9874745D01*
X3621873Y9852827D01*
X3380573Y9611527D01*
X3358655Y9584819D01*
X3342367Y9554347D01*
X3332338Y9521284D01*
X3328951Y9486900D01*
Y8420100D01*
X3332338Y8385716D01*
X3342367Y8352653D01*
X3358655Y8322181D01*
X3380573Y8295473D01*
X3494873Y8181173D01*
X3507200Y8171057D01*
Y8117300D01*
X3808000D01*
Y8418100D01*
X3754243D01*
X3744127Y8430427D01*
X3681449Y8493105D01*
Y9413895D01*
X3819505Y9551951D01*
X3987800D01*
X4022184Y9555338D01*
X4055247Y9565367D01*
X4085719Y9581655D01*
X4112427Y9603573D01*
X4134345Y9630281D01*
X4150633Y9660753D01*
X4160662Y9693816D01*
X4164049Y9728200D01*
X4160662Y9762584D01*
X4150633Y9795647D01*
X4134345Y9826119D01*
X4112427Y9852827D01*
X4085719Y9874745D01*
X4055247Y9891033D01*
X4022184Y9901062D01*
X3987800Y9904449D01*
D02*
G37*
G36*
X4140200Y9409149D02*
X3987800D01*
X3953416Y9405762D01*
X3920353Y9395733D01*
X3897093Y9383300D01*
X3837400D01*
Y9323607D01*
X3824967Y9300347D01*
X3814938Y9267284D01*
X3811551Y9232900D01*
X3814938Y9198516D01*
X3824967Y9165453D01*
X3837400Y9142193D01*
Y9082500D01*
X3897093D01*
X3920353Y9070067D01*
X3953416Y9060038D01*
X3987800Y9056651D01*
X4052851D01*
Y8074005D01*
X3927495Y7948649D01*
X3657600D01*
X3644900Y7947398D01*
X3632200Y7948649D01*
X3597816Y7945262D01*
X3564752Y7935233D01*
X3534281Y7918945D01*
X3507573Y7897026D01*
X3329773Y7719227D01*
X3307855Y7692519D01*
X3291567Y7662047D01*
X3281538Y7628984D01*
X3278151Y7594600D01*
Y3276600D01*
X3281538Y3242216D01*
X3291567Y3209153D01*
X3307855Y3178681D01*
X3329773Y3151973D01*
X3456773Y3024973D01*
X3483481Y3003055D01*
X3513953Y2986767D01*
X3547016Y2976738D01*
X3581400Y2973351D01*
X3581403Y2973351D01*
X3949700D01*
X3984084Y2976738D01*
X4017147Y2986767D01*
X4040407Y2999200D01*
X4100100D01*
Y3050747D01*
X4118205Y3068851D01*
X4535600D01*
X4569985Y3072238D01*
X4603047Y3082267D01*
X4633519Y3098555D01*
X4660227Y3120473D01*
X4682145Y3147181D01*
X4698433Y3177653D01*
X4708462Y3210715D01*
X4711849Y3245100D01*
X4708462Y3279484D01*
X4698433Y3312547D01*
X4682145Y3343018D01*
X4660227Y3369727D01*
X4633519Y3391645D01*
X4603047Y3407932D01*
X4569985Y3417962D01*
X4535600Y3421349D01*
X4045202D01*
X4045200Y3421349D01*
X4010815Y3417962D01*
X3977753Y3407932D01*
X3947282Y3391645D01*
X3920573Y3369727D01*
X3876695Y3325849D01*
X3654405D01*
X3630649Y3349605D01*
Y7521595D01*
X3705204Y7596151D01*
X4000500D01*
X4034884Y7599538D01*
X4067947Y7609567D01*
X4098419Y7625855D01*
X4125127Y7647773D01*
X4353727Y7876373D01*
X4375645Y7903081D01*
X4391933Y7933553D01*
X4401962Y7966616D01*
X4405349Y8001000D01*
Y9143997D01*
X4405349Y9144000D01*
X4401962Y9178384D01*
X4391933Y9211447D01*
X4375646Y9241918D01*
X4353727Y9268627D01*
X4264827Y9357527D01*
X4238119Y9379445D01*
X4207647Y9395733D01*
X4174584Y9405762D01*
X4140200Y9409149D01*
D02*
G37*
G36*
X9461500Y8101328D02*
X9432016Y8098424D01*
X9403666Y8089824D01*
X9377538Y8075858D01*
X9354637Y8057063D01*
X9335842Y8034162D01*
X9321876Y8008034D01*
X9313276Y7979684D01*
X9310372Y7950200D01*
X9313276Y7920716D01*
X9321876Y7892366D01*
X9335842Y7866238D01*
X9354637Y7843337D01*
X9377538Y7824542D01*
X9403666Y7810576D01*
X9432016Y7801976D01*
X9461500Y7799072D01*
X9490984Y7801976D01*
X9519334Y7810576D01*
X9545462Y7824542D01*
X9568363Y7843337D01*
X9587158Y7866238D01*
X9601124Y7892366D01*
X9609724Y7920716D01*
X9612628Y7950200D01*
X9609724Y7979684D01*
X9601124Y8008034D01*
X9587158Y8034162D01*
X9568363Y8057063D01*
X9545462Y8075858D01*
X9519334Y8089824D01*
X9490984Y8098424D01*
X9461500Y8101328D01*
D02*
G37*
G36*
X7175500Y9854682D02*
X7142764Y9850372D01*
X7112259Y9837737D01*
X7086064Y9817636D01*
X7009864Y9741436D01*
X6989763Y9715241D01*
X6977128Y9684736D01*
X6972818Y9652000D01*
X6972818Y9651998D01*
Y7793166D01*
X6952755Y7768718D01*
X6950946Y7765334D01*
X6938383Y7763470D01*
X6906427Y7795427D01*
X6879719Y7817345D01*
X6849247Y7833633D01*
X6816184Y7843662D01*
X6781800Y7847049D01*
X4961300D01*
X4926915Y7843662D01*
X4893853Y7833633D01*
X4863381Y7817345D01*
X4836673Y7795427D01*
X4410973Y7369727D01*
X4389055Y7343018D01*
X4372767Y7312547D01*
X4362738Y7279484D01*
X4359351Y7245100D01*
X4362738Y7210716D01*
X4372767Y7177653D01*
X4389055Y7147182D01*
X4410973Y7120473D01*
X4437682Y7098555D01*
X4468153Y7082268D01*
X4501216Y7072238D01*
X4535600Y7068851D01*
X4569984Y7072238D01*
X4603047Y7082268D01*
X4633518Y7098555D01*
X4660227Y7120473D01*
X5034305Y7494551D01*
X6708795D01*
X6948451Y7254895D01*
Y4468336D01*
X6951838Y4433952D01*
X6961867Y4400889D01*
X6978155Y4370417D01*
X7000073Y4343709D01*
X7175808Y4167975D01*
X7175809Y4167973D01*
X7202518Y4146054D01*
X7232989Y4129767D01*
X7266052Y4119738D01*
X7300436Y4116351D01*
X7300439Y4116351D01*
X9423400D01*
X9457784Y4119738D01*
X9490847Y4129767D01*
X9498926Y4134085D01*
X9519334Y4140276D01*
X9545462Y4154242D01*
X9568363Y4173037D01*
X9587158Y4195938D01*
X9601124Y4222066D01*
X9609724Y4250416D01*
X9612628Y4279900D01*
X9609724Y4309384D01*
X9601124Y4337734D01*
X9587158Y4363862D01*
X9578656Y4374221D01*
X9569945Y4390519D01*
X9548027Y4417227D01*
X9521319Y4439145D01*
X9490847Y4455433D01*
X9457784Y4465462D01*
X9423400Y4468849D01*
X7373440D01*
X7300949Y4541341D01*
Y7327900D01*
X7297562Y7362284D01*
X7287533Y7395347D01*
X7275100Y7418607D01*
Y7478300D01*
X7223553D01*
X7191970Y7509883D01*
X7193834Y7522446D01*
X7197218Y7524255D01*
X7223927Y7546173D01*
X7286605Y7608851D01*
X8394700D01*
X8429084Y7612238D01*
X8462147Y7622267D01*
X8492619Y7638555D01*
X8519327Y7660473D01*
X8541245Y7687181D01*
X8557533Y7717653D01*
X8567562Y7750716D01*
X8570949Y7785100D01*
X8567562Y7819484D01*
X8557533Y7852547D01*
X8541245Y7883019D01*
X8519327Y7909727D01*
X8492619Y7931645D01*
X8462147Y7947933D01*
X8429084Y7957962D01*
X8394700Y7961349D01*
X7225782D01*
Y9599609D01*
X7227891Y9601718D01*
X7518400D01*
X7551136Y9606028D01*
X7581641Y9618663D01*
X7607836Y9638764D01*
X7627937Y9664959D01*
X7640572Y9695464D01*
X7644882Y9728200D01*
X7640572Y9760936D01*
X7627937Y9791441D01*
X7607836Y9817636D01*
X7581641Y9837737D01*
X7551136Y9850372D01*
X7518400Y9854682D01*
X7175502D01*
X7175500Y9854682D01*
D02*
G37*
G36*
X10210800Y8508482D02*
X10178064Y8504172D01*
X10147559Y8491537D01*
X10121364Y8471436D01*
X10083264Y8433336D01*
X10063163Y8407141D01*
X10050528Y8376636D01*
X10046218Y8343900D01*
X10046218Y8343898D01*
Y7900991D01*
X9739309Y7594082D01*
X9611900D01*
Y7605300D01*
X9311100D01*
Y7304500D01*
X9611900D01*
Y7341118D01*
X9791698D01*
X9791700Y7341118D01*
X9824436Y7345428D01*
X9854941Y7358063D01*
X9881136Y7378164D01*
X10262135Y7759163D01*
X10262136Y7759164D01*
X10282237Y7785359D01*
X10294872Y7815864D01*
X10299182Y7848600D01*
Y8255518D01*
X10541000D01*
X10573736Y8259828D01*
X10604241Y8272463D01*
X10614584Y8280400D01*
X10642600D01*
Y8308416D01*
X10650537Y8318759D01*
X10663172Y8349264D01*
X10667482Y8382000D01*
X10663172Y8414736D01*
X10650537Y8445241D01*
X10642600Y8455584D01*
Y8483600D01*
X10614584D01*
X10604241Y8491537D01*
X10573736Y8504172D01*
X10541000Y8508482D01*
X10210802D01*
X10210800Y8508482D01*
D02*
G37*
G36*
X8545100Y7440200D02*
X8244300D01*
Y7139400D01*
X8293218D01*
Y7061602D01*
X8293218Y7061600D01*
X8297527Y7028864D01*
X8310163Y6998359D01*
X8330264Y6972164D01*
X8775164Y6527264D01*
X8801359Y6507163D01*
X8831864Y6494528D01*
X8864600Y6490218D01*
X9363067D01*
X9377538Y6478342D01*
X9403666Y6464376D01*
X9432016Y6455776D01*
X9461500Y6452872D01*
X9490984Y6455776D01*
X9519334Y6464376D01*
X9545462Y6478342D01*
X9568363Y6497137D01*
X9587158Y6520038D01*
X9601124Y6546166D01*
X9609724Y6574516D01*
X9612628Y6604000D01*
X9609724Y6633484D01*
X9601124Y6661834D01*
X9587158Y6687962D01*
X9568363Y6710863D01*
X9545462Y6729658D01*
X9519334Y6743624D01*
X9490984Y6752224D01*
X9461500Y6755128D01*
X9432016Y6752224D01*
X9403666Y6743624D01*
X9402840Y6743182D01*
X8916991D01*
X8546182Y7113991D01*
Y7264798D01*
X8546182Y7264800D01*
X8545100Y7273020D01*
Y7440200D01*
D02*
G37*
G36*
X9461500Y6259828D02*
X9432016Y6256924D01*
X9403666Y6248324D01*
X9377538Y6234358D01*
X9354637Y6215563D01*
X9335842Y6192662D01*
X9321876Y6166534D01*
X9313276Y6138184D01*
X9310372Y6108700D01*
X9313276Y6079216D01*
X9321876Y6050866D01*
X9335842Y6024738D01*
X9354637Y6001837D01*
X9377538Y5983042D01*
X9403666Y5969076D01*
X9432016Y5960476D01*
X9461500Y5957572D01*
X9490984Y5960476D01*
X9519334Y5969076D01*
X9543920Y5982218D01*
X9942509D01*
X10095963Y5828765D01*
X10095964Y5828764D01*
X10122159Y5808663D01*
X10152664Y5796028D01*
X10185400Y5791718D01*
X10327100D01*
Y5767800D01*
X10627900D01*
Y6068600D01*
X10327100D01*
Y6044682D01*
X10237791D01*
X10084336Y6198136D01*
X10058141Y6218237D01*
X10027636Y6230872D01*
X9994900Y6235182D01*
X9994898Y6235182D01*
X9543920D01*
X9519334Y6248324D01*
X9490984Y6256924D01*
X9461500Y6259828D01*
D02*
G37*
G36*
X7730800Y5749600D02*
X7560000D01*
Y5578800D01*
X7730800D01*
Y5749600D01*
D02*
G37*
G36*
X9461500Y4926328D02*
X9432016Y4923424D01*
X9403666Y4914824D01*
X9377538Y4900858D01*
X9354637Y4882063D01*
X9335842Y4859162D01*
X9321876Y4833034D01*
X9313276Y4804684D01*
X9310372Y4775200D01*
X9313276Y4745716D01*
X9321876Y4717366D01*
X9335842Y4691238D01*
X9354637Y4668337D01*
X9377538Y4649542D01*
X9403666Y4635576D01*
X9432016Y4626976D01*
X9461500Y4624072D01*
X9490984Y4626976D01*
X9519334Y4635576D01*
X9543920Y4648718D01*
X9815509D01*
X10235663Y4228565D01*
X10235664Y4228564D01*
X10261859Y4208463D01*
X10292364Y4195828D01*
X10325100Y4191518D01*
X10327100D01*
Y4167600D01*
X10627900D01*
Y4468400D01*
X10353573D01*
X9957336Y4864636D01*
X9931141Y4884737D01*
X9900636Y4897372D01*
X9867900Y4901682D01*
X9867898Y4901682D01*
X9543920D01*
X9519334Y4914824D01*
X9490984Y4923424D01*
X9461500Y4926328D01*
D02*
G37*
%LPD*%
D10*
X4610100Y7861300D02*
Y10223500D01*
X4010464Y7013136D02*
Y7261664D01*
Y7013136D02*
X4406900Y6616700D01*
X4010464Y7261664D02*
X4610100Y7861300D01*
X10896600Y3960336D02*
Y5219700D01*
X10720864Y3784600D02*
X10896600Y3960336D01*
X9461500Y3784600D02*
X10720864D01*
X3987800Y10223500D02*
X4610100D01*
X7289800D01*
X10477500Y6692900D02*
X10720864Y6936264D01*
X10477500Y6413500D02*
Y6692900D01*
X6346600Y3367569D02*
Y7251700D01*
X10477500Y5219700D02*
X10896600D01*
X8026400Y3797300D02*
X9461500D01*
X10720864Y6936264D02*
Y7035800D01*
X8140700Y5219700D02*
X10477500D01*
X6346600Y3251700D02*
Y3367569D01*
X10720864Y7035800D02*
X10896600Y6860064D01*
X6335600Y3245100D02*
X7474200D01*
X10477500Y4813300D02*
Y5207000D01*
X10490200Y5219700D01*
X10896600D02*
Y6860064D01*
X8801100Y7211536D02*
Y8102600D01*
Y7211536D02*
X8976836Y7035800D01*
X10720864D01*
X8785860Y8915400D02*
X10541000D01*
X8405400Y8534940D02*
X8785860Y8915400D01*
X8405400Y8291100D02*
Y8534940D01*
X4961300Y7670800D02*
X6781800D01*
X4535600Y7245100D02*
X4961300Y7670800D01*
X5359400Y7251700D02*
X6346600D01*
X4724400Y6616700D02*
X5359400Y7251700D01*
X4406900Y6616700D02*
X4724400D01*
X6781800Y7670800D02*
X7099300Y7353300D01*
Y7670800D02*
X7213600Y7785100D01*
X3987800Y9232900D02*
X4140200D01*
X4229100Y9144000D01*
Y8001000D02*
Y9144000D01*
X4000500Y7772400D02*
X4229100Y8001000D01*
X3657600Y7772400D02*
X4000500D01*
X3505200Y8420100D02*
X3619500Y8305800D01*
X8394700Y8280400D02*
X8623300D01*
X8801100Y8102600D01*
X7213600Y7785100D02*
X8394700D01*
X7124700Y4468336D02*
X7300436Y4292600D01*
X7124700Y4468336D02*
Y7327900D01*
X7300436Y4292600D02*
X9423400D01*
X7474200Y3245100D02*
X8026400Y3797300D01*
X3454400Y7594600D02*
X3632200Y7772400D01*
X3454400Y3276600D02*
Y7594600D01*
Y3276600D02*
X3581400Y3149600D01*
X3949700D01*
X3746500Y9728200D02*
X3987800D01*
X3505200Y9486900D02*
X3746500Y9728200D01*
X3505200Y8420100D02*
Y9486900D01*
X3949700Y3644900D02*
X4953000D01*
X5230331Y3367569D01*
X3949700Y3149600D02*
X4045200Y3245100D01*
X4535600D01*
X6213131Y3367569D02*
X6335600Y3245100D01*
X5230331Y3367569D02*
X6213131D01*
D11*
X9461500Y6108700D02*
X9994900D01*
X10185400Y5918200D02*
X10477500D01*
X9994900Y6108700D02*
X10185400Y5918200D01*
X10325100Y4318000D02*
X10477500D01*
X9867900Y4775200D02*
X10325100Y4318000D01*
X9461500Y4775200D02*
X9867900D01*
X8394700Y7289800D02*
X8419700Y7264800D01*
Y7061600D02*
Y7264800D01*
Y7061600D02*
X8864600Y6616700D01*
X8426450Y5670550D02*
X8456796Y5640204D01*
X8397331Y5699669D02*
X8426450Y5670550D01*
X8159750D02*
X8426450D01*
X8153400Y5664200D02*
X8159750Y5670550D01*
X7899400Y5461000D02*
Y5664200D01*
Y5461000D02*
X8140700Y5219700D01*
X10210800Y8382000D02*
X10541000D01*
X10172700Y8343900D02*
X10210800Y8382000D01*
X9791700Y7467600D02*
X10172700Y7848600D01*
Y8343900D01*
X9486900Y7467600D02*
X9791700D01*
X7099300Y7670800D02*
Y9652000D01*
X8229600Y9779000D02*
X9486900D01*
X7912100Y9461500D02*
X8229600Y9779000D01*
X7518400Y9461500D02*
X7912100D01*
X7175500Y9728200D02*
X7518400D01*
X7099300Y9652000D02*
X7175500Y9728200D01*
X7289800Y10223500D02*
X7518400Y9994900D01*
X8864600Y6616700D02*
X9423400D01*
X9409296Y5640204D02*
X9423400Y5626100D01*
X8456796Y5640204D02*
X9409296D01*
X8397331Y5699669D02*
Y6220369D01*
X7620000Y6997700D02*
X8397331Y6220369D01*
X7620000Y6997700D02*
Y7327900D01*
D12*
X8394700Y8280400D02*
X8405400Y8291100D01*
X7099300Y7353300D02*
Y7670800D01*
Y7353300D02*
X7124700Y7327900D01*
X3632200Y7772400D02*
X3657600D01*
X3619500Y8305800D02*
X3657600Y8267700D01*
D13*
D03*
X9461500Y3784600D02*
D03*
Y5613400D02*
D03*
Y7454900D02*
D03*
Y9271000D02*
D03*
X3987800Y9232900D02*
D03*
X10477500Y5918200D02*
D03*
Y4318000D02*
D03*
X8394700Y7289800D02*
D03*
X3949700Y3149600D02*
D03*
D14*
X3657600Y7772400D02*
D03*
X9461500Y4775200D02*
D03*
Y4279900D02*
D03*
Y6604000D02*
D03*
Y6108700D02*
D03*
Y8445500D02*
D03*
Y7950200D02*
D03*
Y10261600D02*
D03*
Y9766300D02*
D03*
X3987800Y10223500D02*
D03*
Y9728200D02*
D03*
X10477500Y6413500D02*
D03*
Y4813300D02*
D03*
X7620000Y7327900D02*
D03*
X8394700Y8280400D02*
D03*
Y7785100D02*
D03*
X3949700Y3644900D02*
D03*
X4546600Y3251700D02*
D03*
X6346600D02*
D03*
Y7251700D02*
D03*
X4546600D02*
D03*
D15*
X7518400Y9728200D02*
D03*
Y9461500D02*
D03*
X10541000Y8915400D02*
D03*
Y8648700D02*
D03*
D16*
X7518400Y9994900D02*
D03*
X10541000Y8382000D02*
D03*
D17*
X7124700Y7327900D02*
D03*
D18*
X7645400Y5664200D02*
D03*
D19*
X7899400D02*
D03*
X8153400D02*
D03*
%TF.MD5,bf6c7313dede4e97a597f28d28b32249*%
M02*
