G04*
G04 #@! TF.GenerationSoftware,Altium Limited,Altium Designer,20.2.4 (192)*
G04*
G04 Layer_Color=128*
%FSLAX44Y44*%
%MOMM*%
G71*
G04*
G04 #@! TF.SameCoordinates,98E7ABD1-40F7-4761-AB59-632EF022EC07*
G04*
G04*
G04 #@! TF.FilePolarity,Positive*
G04*
G01*
G75*
%ADD10C,0.0508*%
D10*
X1065333Y826770D02*
X1052833D01*
X1059083Y820520D02*
Y833020D01*
X1065333Y777240D02*
X1052833D01*
X1059083Y770990D02*
Y783490D01*
X484943Y477520D02*
X472443D01*
X478693Y471270D02*
Y483770D01*
X484943Y427990D02*
X472443D01*
X478693Y421740D02*
Y434240D01*
X484943Y378460D02*
X472443D01*
X478693Y372210D02*
Y384710D01*
X484943Y660400D02*
X472443D01*
X478693Y654150D02*
Y666650D01*
X484943Y610870D02*
X472443D01*
X478693Y604620D02*
Y617120D01*
X484943Y561340D02*
X472443D01*
X478693Y555090D02*
Y567590D01*
X484943Y844550D02*
X472443D01*
X478693Y838300D02*
Y850800D01*
X484943Y795020D02*
X472443D01*
X478693Y788770D02*
Y801270D01*
X484943Y745490D02*
X472443D01*
X478693Y739240D02*
Y751740D01*
X484943Y1026160D02*
X472443D01*
X478693Y1019910D02*
Y1032410D01*
X484943Y976630D02*
X472443D01*
X478693Y970380D02*
Y982880D01*
X484943Y927100D02*
X472443D01*
X478693Y920850D02*
Y933350D01*
X1032313Y1022350D02*
X1019813D01*
X1026063Y1016100D02*
Y1028600D01*
X1032313Y972820D02*
X1019813D01*
X1026063Y966570D02*
Y979070D01*
X1032313Y923290D02*
X1019813D01*
X1026063Y917040D02*
Y929540D01*
X676813Y972820D02*
X669193D01*
X673003Y969010D02*
Y976630D01*
X676813Y999490D02*
X669193D01*
X673003Y995680D02*
Y1003300D01*
X676813Y946150D02*
X669193D01*
X673003Y942340D02*
Y949960D01*
X383343Y641350D02*
X370843D01*
X377093Y635100D02*
Y647600D01*
X383343Y591820D02*
X370843D01*
X377093Y585570D02*
Y598070D01*
X383343Y481330D02*
X370843D01*
X377093Y475080D02*
Y487580D01*
X383343Y431800D02*
X370843D01*
X377093Y425550D02*
Y438050D01*
X669093Y732790D02*
X656593D01*
X662843Y726540D02*
Y739040D01*
X718623Y732790D02*
X706123D01*
X712373Y726540D02*
Y739040D01*
X591623Y828040D02*
X579123D01*
X585373Y821790D02*
Y834290D01*
X591623Y778510D02*
X579123D01*
X585373Y772260D02*
Y784760D01*
X591623Y728980D02*
X579123D01*
X585373Y722730D02*
Y735230D01*
X1036123Y364490D02*
X1023623D01*
X1029873Y358240D02*
Y370740D01*
X1036123Y314960D02*
X1023623D01*
X1029873Y308710D02*
Y321210D01*
X374553Y891540D02*
X366933D01*
X370743Y887730D02*
Y895350D01*
X374553Y838200D02*
X366933D01*
X370743Y834390D02*
Y842010D01*
X374553Y864870D02*
X366933D01*
X370743Y861060D02*
Y868680D01*
X974683Y325170D02*
X965683D01*
X970183Y320670D02*
Y329670D01*
X794683Y325170D02*
X785683D01*
X790183Y320670D02*
Y329670D01*
X794683Y725170D02*
X785683D01*
X790183Y720670D02*
Y729670D01*
X974683Y725170D02*
X965683D01*
X970183Y720670D02*
Y729670D01*
X663803Y566420D02*
X656803D01*
X660303Y562920D02*
Y569920D01*
X638403Y566420D02*
X631403D01*
X634903Y562920D02*
Y569920D01*
X613003Y566420D02*
X606003D01*
X609503Y562920D02*
Y569920D01*
M02*
