G04*
G04 #@! TF.GenerationSoftware,Altium Limited,Altium Designer,20.2.4 (192)*
G04*
G04 Layer_Physical_Order=2*
G04 Layer_Color=16711680*
%FSLAX44Y44*%
%MOMM*%
G71*
G04*
G04 #@! TF.SameCoordinates,F4713572-4C88-472A-A992-6C8706FC9377*
G04*
G04*
G04 #@! TF.FilePolarity,Positive*
G04*
G01*
G75*
%ADD10C,2.0000*%
%ADD11C,3.0000*%
%ADD12C,0.2540*%
%ADD13C,2.5000*%
%ADD14R,2.5000X2.5000*%
%ADD15R,2.5000X2.5000*%
%ADD16C,1.5240*%
%ADD17R,1.5240X1.5240*%
%ADD18R,1.2000X1.2000*%
%ADD19C,1.2000*%
D10*
X842645Y567055D02*
X845680Y564020D01*
X839733Y569967D02*
X842645Y567055D01*
X815975D02*
X842645D01*
X815340Y566420D02*
X815975Y567055D01*
X789940Y546100D02*
Y566420D01*
Y546100D02*
X814070Y521970D01*
X1021080Y838200D02*
X1054100D01*
X1017270Y834390D02*
X1021080Y838200D01*
X979170Y746760D02*
X1017270Y784860D01*
Y834390D01*
X948690Y746760D02*
X979170D01*
X709930Y767080D02*
Y965200D01*
X822960Y977900D02*
X948690D01*
X791210Y946150D02*
X822960Y977900D01*
X751840Y946150D02*
X791210D01*
X717550Y972820D02*
X751840D01*
X709930Y965200D02*
X717550Y972820D01*
X728980Y1022350D02*
X751840Y999490D01*
X886460Y661670D02*
X942340D01*
X839470Y708660D02*
X886460Y661670D01*
X839470Y708660D02*
Y728980D01*
X940930Y564020D02*
X942340Y562610D01*
X845680Y564020D02*
X940930D01*
X839733Y569967D02*
Y622037D01*
X762000Y699770D02*
X839733Y622037D01*
X762000Y699770D02*
Y732790D01*
D11*
X878586Y891540D02*
X1054100D01*
X634660Y325170D02*
Y725170D01*
X840540Y853494D02*
X878586Y891540D01*
X802640Y379730D02*
X948690D01*
X998220D01*
X840540Y829110D02*
Y853494D01*
X633560Y324510D02*
X747420D01*
X496130Y767080D02*
X678180D01*
X453560Y724510D02*
X496130Y767080D01*
X535940Y725170D02*
X634660D01*
X472440Y661670D02*
X535940Y725170D01*
X440690Y661670D02*
X472440D01*
X407670Y694690D02*
X440690Y661670D01*
X407670Y694690D02*
Y734060D01*
X468630Y795020D01*
X398780Y1022350D02*
X468630Y952500D01*
Y795020D02*
Y952500D01*
X678180Y767080D02*
X709930Y735330D01*
Y767080D02*
X721360Y778510D01*
X398780Y1022350D02*
X728980D01*
X398780Y923290D02*
X414020D01*
X422910Y914400D01*
Y800100D02*
Y914400D01*
X400050Y777240D02*
X422910Y800100D01*
X365760Y777240D02*
X400050D01*
X350520Y842010D02*
X361950Y830580D01*
X999490Y702310D02*
X1016000Y685800D01*
Y483870D02*
Y685800D01*
X904240Y702310D02*
X999490D01*
X880110Y726440D02*
Y810260D01*
Y726440D02*
X904240Y702310D01*
X839470Y828040D02*
X862330D01*
X880110Y810260D01*
X721360Y778510D02*
X839470D01*
X814070Y521970D02*
X977900D01*
X998220Y379730D02*
X1016000Y397510D01*
Y483870D01*
X977900Y521970D02*
X1016000Y483870D01*
X712470Y446834D02*
X730044Y429260D01*
X712470Y446834D02*
Y732790D01*
X730044Y429260D02*
X942340D01*
X747420Y324510D02*
X802640Y379730D01*
X345440Y759460D02*
X363220Y777240D01*
X345440Y327660D02*
Y759460D01*
Y327660D02*
X358140Y314960D01*
X394970D01*
X374650Y972820D02*
X398780D01*
X350520Y948690D02*
X374650Y972820D01*
X350520Y842010D02*
Y948690D01*
X394970Y364490D02*
X495300D01*
X523033Y336757D01*
X394970Y314960D02*
X404520Y324510D01*
X453560D01*
X621313Y336757D02*
X633560Y324510D01*
X523033Y336757D02*
X621313D01*
D12*
X839470Y828040D02*
X840540Y829110D01*
X709930Y735330D02*
Y767080D01*
Y735330D02*
X712470Y732790D01*
X363220Y777240D02*
X365760D01*
X361950Y830580D02*
X365760Y826770D01*
D13*
Y777240D02*
D03*
X762000Y732790D02*
D03*
X839470Y828040D02*
D03*
Y778510D02*
D03*
X394970Y364490D02*
D03*
X948690Y478790D02*
D03*
Y429260D02*
D03*
Y661670D02*
D03*
Y612140D02*
D03*
Y845820D02*
D03*
Y796290D02*
D03*
Y1027430D02*
D03*
Y977900D02*
D03*
X398780Y972820D02*
D03*
Y1022350D02*
D03*
X454660Y325170D02*
D03*
X634660D02*
D03*
Y725170D02*
D03*
X454660D02*
D03*
D14*
X365760Y826770D02*
D03*
X839470Y728980D02*
D03*
X394970Y314960D02*
D03*
X948690Y379730D02*
D03*
Y562610D02*
D03*
Y746760D02*
D03*
Y928370D02*
D03*
X398780Y923290D02*
D03*
D15*
X712470Y732790D02*
D03*
D16*
X1054100Y891540D02*
D03*
Y864870D02*
D03*
X751840Y946150D02*
D03*
Y972820D02*
D03*
D17*
X1054100Y838200D02*
D03*
X751840Y999490D02*
D03*
D18*
X764540Y566420D02*
D03*
D19*
X789940D02*
D03*
X815340D02*
D03*
M02*
