G04*
G04 #@! TF.GenerationSoftware,Altium Limited,Altium Designer,20.2.4 (192)*
G04*
G04 Layer_Color=128*
%FSLAX44Y44*%
%MOMM*%
G71*
G04*
G04 #@! TF.SameCoordinates,978A6366-A59E-46DB-84C1-059E77AED5E4*
G04*
G04*
G04 #@! TF.FilePolarity,Positive*
G04*
G01*
G75*
%ADD25C,0.0508*%
D25*
X359510Y826770D02*
X372010D01*
X365760Y820520D02*
Y833020D01*
X359510Y777240D02*
X372010D01*
X365760Y770990D02*
Y783490D01*
X939900Y477520D02*
X952400D01*
X946150Y471270D02*
Y483770D01*
X939900Y427990D02*
X952400D01*
X946150Y421740D02*
Y434240D01*
X939900Y378460D02*
X952400D01*
X946150Y372210D02*
Y384710D01*
X939900Y660400D02*
X952400D01*
X946150Y654150D02*
Y666650D01*
X939900Y610870D02*
X952400D01*
X946150Y604620D02*
Y617120D01*
X939900Y561340D02*
X952400D01*
X946150Y555090D02*
Y567590D01*
X939900Y844550D02*
X952400D01*
X946150Y838300D02*
Y850800D01*
X939900Y795020D02*
X952400D01*
X946150Y788770D02*
Y801270D01*
X939900Y745490D02*
X952400D01*
X946150Y739240D02*
Y751740D01*
X939900Y1026160D02*
X952400D01*
X946150Y1019910D02*
Y1032410D01*
X939900Y976630D02*
X952400D01*
X946150Y970380D02*
Y982880D01*
X939900Y927100D02*
X952400D01*
X946150Y920850D02*
Y933350D01*
X392530Y1022350D02*
X405030D01*
X398780Y1016100D02*
Y1028600D01*
X392530Y972820D02*
X405030D01*
X398780Y966570D02*
Y979070D01*
X392530Y923290D02*
X405030D01*
X398780Y917040D02*
Y929540D01*
X748030Y972820D02*
X755650D01*
X751840Y969010D02*
Y976630D01*
X748030Y999490D02*
X755650D01*
X751840Y995680D02*
Y1003300D01*
X748030Y946150D02*
X755650D01*
X751840Y942340D02*
Y949960D01*
X1041500Y641350D02*
X1054000D01*
X1047750Y635100D02*
Y647600D01*
X1041500Y591820D02*
X1054000D01*
X1047750Y585570D02*
Y598070D01*
X1041500Y481330D02*
X1054000D01*
X1047750Y475080D02*
Y487580D01*
X1041500Y431800D02*
X1054000D01*
X1047750Y425550D02*
Y438050D01*
X755750Y732790D02*
X768250D01*
X762000Y726540D02*
Y739040D01*
X706220Y732790D02*
X718720D01*
X712470Y726540D02*
Y739040D01*
X833220Y828040D02*
X845720D01*
X839470Y821790D02*
Y834290D01*
X833220Y778510D02*
X845720D01*
X839470Y772260D02*
Y784760D01*
X833220Y728980D02*
X845720D01*
X839470Y722730D02*
Y735230D01*
X388720Y364490D02*
X401220D01*
X394970Y358240D02*
Y370740D01*
X388720Y314960D02*
X401220D01*
X394970Y308710D02*
Y321210D01*
X1050290Y891540D02*
X1057910D01*
X1054100Y887730D02*
Y895350D01*
X1050290Y838200D02*
X1057910D01*
X1054100Y834390D02*
Y842010D01*
X1050290Y864870D02*
X1057910D01*
X1054100Y861060D02*
Y868680D01*
X450160Y325170D02*
X459160D01*
X454660Y320670D02*
Y329670D01*
X630160Y325170D02*
X639160D01*
X634660Y320670D02*
Y329670D01*
X630160Y725170D02*
X639160D01*
X634660Y720670D02*
Y729670D01*
X450160Y725170D02*
X459160D01*
X454660Y720670D02*
Y729670D01*
X761040Y566420D02*
X768040D01*
X764540Y562920D02*
Y569920D01*
X786440Y566420D02*
X793440D01*
X789940Y562920D02*
Y569920D01*
X811840Y566420D02*
X818840D01*
X815340Y562920D02*
Y569920D01*
M02*
