G04*
G04 #@! TF.GenerationSoftware,Altium Limited,Altium Designer,20.2.4 (192)*
G04*
G04 Layer_Color=65535*
%FSLAX44Y44*%
%MOMM*%
G71*
G04*
G04 #@! TF.SameCoordinates,978A6366-A59E-46DB-84C1-059E77AED5E4*
G04*
G04*
G04 #@! TF.FilePolarity,Positive*
G04*
G01*
G75*
%ADD10C,0.2000*%
%ADD11C,0.2540*%
%ADD12R,8.0000X72.0000*%
%ADD13R,34.0000X27.0000*%
%ADD14R,11.0000X16.0000*%
%ADD15R,22.0000X44.0000*%
D10*
X739140Y541020D02*
Y591820D01*
Y541020D02*
X853440D01*
Y566420D01*
X840740D02*
X853440D01*
X840740D02*
Y591820D01*
X739140D02*
X840740D01*
D11*
X1073854Y551180D02*
X1085850D01*
Y559177D01*
Y563176D02*
X1077853D01*
X1073854Y567175D01*
X1077853Y571174D01*
X1085850D01*
X1079852D01*
Y563176D01*
X1075853Y583170D02*
X1073854Y581170D01*
Y577172D01*
X1075853Y575172D01*
X1077853D01*
X1079852Y577172D01*
Y581170D01*
X1081851Y583170D01*
X1083851D01*
X1085850Y581170D01*
Y577172D01*
X1083851Y575172D01*
X1073854Y595166D02*
Y587168D01*
X1085850D01*
Y595166D01*
X1079852Y587168D02*
Y591167D01*
X1085850Y599165D02*
X1073854D01*
Y605163D01*
X1075853Y607162D01*
X1079852D01*
X1081851Y605163D01*
Y599165D01*
Y603163D02*
X1085850Y607162D01*
X1073854Y623157D02*
Y627155D01*
Y625156D01*
X1085850D01*
Y623157D01*
Y627155D01*
Y633153D02*
X1073854D01*
X1085850Y641151D01*
X1073854D01*
Y645150D02*
X1083851D01*
X1085850Y647149D01*
Y651148D01*
X1083851Y653147D01*
X1073854D01*
X1075853Y665143D02*
X1073854Y663144D01*
Y659145D01*
X1075853Y657146D01*
X1077853D01*
X1079852Y659145D01*
Y663144D01*
X1081851Y665143D01*
X1083851D01*
X1085850Y663144D01*
Y659145D01*
X1083851Y657146D01*
X1073854Y677139D02*
Y669142D01*
X1085850D01*
Y677139D01*
X1079852Y669142D02*
Y673140D01*
X1073854Y386080D02*
X1085850D01*
Y394077D01*
Y398076D02*
X1077853D01*
X1073854Y402075D01*
X1077853Y406073D01*
X1085850D01*
X1079852D01*
Y398076D01*
X1075853Y418070D02*
X1073854Y416070D01*
Y412072D01*
X1075853Y410072D01*
X1077853D01*
X1079852Y412072D01*
Y416070D01*
X1081851Y418070D01*
X1083851D01*
X1085850Y416070D01*
Y412072D01*
X1083851Y410072D01*
X1073854Y430066D02*
Y422068D01*
X1085850D01*
Y430066D01*
X1079852Y422068D02*
Y426067D01*
X1085850Y434064D02*
X1073854D01*
Y440062D01*
X1075853Y442062D01*
X1079852D01*
X1081851Y440062D01*
Y434064D01*
Y438063D02*
X1085850Y442062D01*
X1075853Y466054D02*
X1073854Y464055D01*
Y460056D01*
X1075853Y458057D01*
X1083851D01*
X1085850Y460056D01*
Y464055D01*
X1083851Y466054D01*
X1073854Y470053D02*
X1083851D01*
X1085850Y472052D01*
Y476051D01*
X1083851Y478050D01*
X1073854D01*
Y482049D02*
Y490046D01*
Y486048D01*
X1085850D01*
X1073854Y500043D02*
Y496044D01*
X1075853Y494045D01*
X1083851D01*
X1085850Y496044D01*
Y500043D01*
X1083851Y502043D01*
X1075853D01*
X1073854Y500043D01*
Y514039D02*
Y506041D01*
X1079852D01*
Y510040D01*
Y506041D01*
X1085850D01*
X1073854Y526035D02*
Y518037D01*
X1079852D01*
Y522036D01*
Y518037D01*
X1085850D01*
X881380Y617215D02*
Y601980D01*
X888997D01*
X891537Y604519D01*
Y614676D01*
X888997Y617215D01*
X881380D01*
X896615D02*
X906772D01*
Y614676D01*
X896615Y604519D01*
Y601980D01*
X880110Y486405D02*
Y471170D01*
X887728D01*
X890267Y473709D01*
Y483866D01*
X887728Y486405D01*
X880110D01*
X905502D02*
X900423Y483866D01*
X895345Y478787D01*
Y473709D01*
X897884Y471170D01*
X902963D01*
X905502Y473709D01*
Y476248D01*
X902963Y478787D01*
X895345D01*
X360682Y852173D02*
X370838Y862330D01*
Y852173D02*
X360682Y862330D01*
X365760Y852173D02*
Y862330D01*
X370838Y857252D02*
X360682D01*
X373377Y867408D02*
Y872487D01*
Y869948D01*
X358143D01*
X360682Y867408D01*
X331474Y768347D02*
X328935Y765807D01*
Y760729D01*
X331474Y758190D01*
X334013D01*
X336553Y760729D01*
Y765807D01*
X339092Y768347D01*
X341631D01*
X344170Y765807D01*
Y760729D01*
X341631Y758190D01*
X328935Y773425D02*
X331474D01*
X336553Y778503D01*
X331474Y783582D01*
X328935D01*
X336553Y778503D02*
X344170D01*
Y796278D02*
X328935D01*
X336553Y788660D01*
Y798817D01*
X331474Y803895D02*
X328935Y806434D01*
Y811513D01*
X331474Y814052D01*
X341631D01*
X344170Y811513D01*
Y806434D01*
X341631Y803895D01*
X331474D01*
X344170Y826748D02*
X328935D01*
X336553Y819130D01*
Y829287D01*
X331474Y834365D02*
X328935Y836905D01*
Y841983D01*
X331474Y844522D01*
X341631D01*
X344170Y841983D01*
Y836905D01*
X341631Y834365D01*
X331474D01*
X854710Y1074420D02*
Y1082417D01*
X858709Y1086416D01*
X862707Y1082417D01*
Y1074420D01*
Y1080418D01*
X854710D01*
X866706Y1074420D02*
Y1086416D01*
X872704D01*
X874704Y1084417D01*
Y1080418D01*
X872704Y1078419D01*
X866706D01*
X870705D02*
X874704Y1074420D01*
X878702Y1086416D02*
Y1074420D01*
X884700D01*
X886700Y1076419D01*
Y1084417D01*
X884700Y1086416D01*
X878702D01*
X890698D02*
Y1076419D01*
X892698Y1074420D01*
X896696D01*
X898696Y1076419D01*
Y1086416D01*
X902694D02*
X906693D01*
X904694D01*
Y1074420D01*
X902694D01*
X906693D01*
X912691D02*
Y1086416D01*
X920689Y1074420D01*
Y1086416D01*
X930685D02*
X926687D01*
X924687Y1084417D01*
Y1076419D01*
X926687Y1074420D01*
X930685D01*
X932685Y1076419D01*
Y1084417D01*
X930685Y1086416D01*
X948680D02*
X952678D01*
X950679D01*
Y1074420D01*
X948680D01*
X952678D01*
X958676D02*
Y1086416D01*
X966674Y1074420D01*
Y1086416D01*
X970673D02*
X978670D01*
X974671D01*
Y1074420D01*
X990666Y1086416D02*
X982669D01*
Y1074420D01*
X990666D01*
X982669Y1080418D02*
X986667D01*
X994665Y1074420D02*
Y1086416D01*
X1000663D01*
X1002662Y1084417D01*
Y1080418D01*
X1000663Y1078419D01*
X994665D01*
X998663D02*
X1002662Y1074420D01*
X1014658Y1086416D02*
X1006661D01*
Y1080418D01*
X1010659D01*
X1006661D01*
Y1074420D01*
X1018657D02*
Y1082417D01*
X1022656Y1086416D01*
X1026654Y1082417D01*
Y1074420D01*
Y1080418D01*
X1018657D01*
X1038651Y1084417D02*
X1036651Y1086416D01*
X1032652D01*
X1030653Y1084417D01*
Y1076419D01*
X1032652Y1074420D01*
X1036651D01*
X1038651Y1076419D01*
X1050647Y1086416D02*
X1042649D01*
Y1074420D01*
X1050647D01*
X1042649Y1080418D02*
X1046648D01*
X864874Y1036318D02*
X875031Y1026162D01*
X864874D02*
X875031Y1036318D01*
X864874Y1031240D02*
X875031D01*
X869952Y1026162D02*
Y1036318D01*
X880109D02*
X882648Y1038857D01*
X887727D01*
X890266Y1036318D01*
Y1033779D01*
X887727Y1031240D01*
X885188D01*
X887727D01*
X890266Y1028701D01*
Y1026162D01*
X887727Y1023623D01*
X882648D01*
X880109Y1026162D01*
X692150Y751840D02*
Y767075D01*
X699768D01*
X702307Y764536D01*
Y759457D01*
X699768Y756918D01*
X692150D01*
X697228D02*
X702307Y751840D01*
X707385D02*
Y767075D01*
X717542Y751840D01*
Y767075D01*
X722620Y764536D02*
X725159Y767075D01*
X730238D01*
X732777Y764536D01*
Y761997D01*
X730238Y759457D01*
X727699D01*
X730238D01*
X732777Y756918D01*
Y754379D01*
X730238Y751840D01*
X725159D01*
X722620Y754379D01*
X745473Y751840D02*
Y767075D01*
X737855Y759457D01*
X748012D01*
X760708Y751840D02*
Y767075D01*
X753090Y759457D01*
X763247D01*
X768325Y764536D02*
X770864Y767075D01*
X775943D01*
X778482Y764536D01*
Y754379D01*
X775943Y751840D01*
X770864D01*
X768325Y754379D01*
Y764536D01*
X858525Y728980D02*
X873760Y739137D01*
X858525D02*
X873760Y728980D01*
X861064Y754372D02*
X858525Y751833D01*
Y746754D01*
X861064Y744215D01*
X871221D01*
X873760Y746754D01*
Y751833D01*
X871221Y754372D01*
X873760Y767068D02*
X858525D01*
X866143Y759450D01*
Y769607D01*
X858525Y784842D02*
Y774685D01*
X866143D01*
X863603Y779764D01*
Y782303D01*
X866143Y784842D01*
X871221D01*
X873760Y782303D01*
Y777224D01*
X871221Y774685D01*
X873760Y800077D02*
Y789920D01*
X863603Y800077D01*
X861064D01*
X858525Y797538D01*
Y792459D01*
X861064Y789920D01*
Y805155D02*
X858525Y807694D01*
Y812773D01*
X861064Y815312D01*
X871221D01*
X873760Y812773D01*
Y807694D01*
X871221Y805155D01*
X861064D01*
X1043940Y776536D02*
X1051937Y764540D01*
Y776536D02*
X1043940Y764540D01*
X1063933Y774537D02*
X1061934Y776536D01*
X1057935D01*
X1055936Y774537D01*
Y766539D01*
X1057935Y764540D01*
X1061934D01*
X1063933Y766539D01*
X1073930Y764540D02*
Y776536D01*
X1067932Y770538D01*
X1075930D01*
X1085926Y764540D02*
Y776536D01*
X1079928Y770538D01*
X1087926D01*
X1099922Y764540D02*
X1091925D01*
X1099922Y772537D01*
Y774537D01*
X1097923Y776536D01*
X1093924D01*
X1091925Y774537D01*
X1109919Y764540D02*
Y776536D01*
X1103921Y770538D01*
X1111918D01*
X777240Y599440D02*
Y614675D01*
X784857D01*
X787397Y612136D01*
Y607057D01*
X784857Y604518D01*
X777240D01*
X782318D02*
X787397Y599440D01*
X792475D02*
Y614675D01*
X800093D01*
X802632Y612136D01*
Y607057D01*
X800093Y604518D01*
X792475D01*
X807710Y612136D02*
X810249Y614675D01*
X815328D01*
X817867Y612136D01*
Y609597D01*
X815328Y607057D01*
X817867Y604518D01*
Y601979D01*
X815328Y599440D01*
X810249D01*
X807710Y601979D01*
Y604518D01*
X810249Y607057D01*
X807710Y609597D01*
Y612136D01*
X810249Y607057D02*
X815328D01*
X833102Y614675D02*
X822945D01*
Y607057D01*
X828024Y609597D01*
X830563D01*
X833102Y607057D01*
Y601979D01*
X830563Y599440D01*
X825484D01*
X822945Y601979D01*
X838180Y599440D02*
X843259D01*
X840720D01*
Y614675D01*
X838180Y612136D01*
X850876D02*
X853415Y614675D01*
X858494D01*
X861033Y612136D01*
Y601979D01*
X858494Y599440D01*
X853415D01*
X850876Y601979D01*
Y612136D01*
X407675Y490220D02*
X422910Y500377D01*
X407675D02*
X422910Y490220D01*
X410214Y515612D02*
X407675Y513073D01*
Y507994D01*
X410214Y505455D01*
X420371D01*
X422910Y507994D01*
Y513073D01*
X420371Y515612D01*
X422910Y528308D02*
X407675D01*
X415293Y520690D01*
Y530847D01*
X407675Y546082D02*
Y535925D01*
X415293D01*
X412753Y541004D01*
Y543543D01*
X415293Y546082D01*
X420371D01*
X422910Y543543D01*
Y538464D01*
X420371Y535925D01*
X422910Y551160D02*
Y556239D01*
Y553699D01*
X407675D01*
X410214Y551160D01*
X422910Y571474D02*
X407675D01*
X415293Y563856D01*
Y574013D01*
X494030Y1090925D02*
X504187Y1075690D01*
Y1090925D02*
X494030Y1075690D01*
X519422Y1088386D02*
X516883Y1090925D01*
X511804D01*
X509265Y1088386D01*
Y1078229D01*
X511804Y1075690D01*
X516883D01*
X519422Y1078229D01*
X532118Y1075690D02*
Y1090925D01*
X524500Y1083307D01*
X534657D01*
X547353Y1075690D02*
Y1090925D01*
X539735Y1083307D01*
X549892D01*
X554970Y1075690D02*
X560049D01*
X557509D01*
Y1090925D01*
X554970Y1088386D01*
X567666Y1078229D02*
X570205Y1075690D01*
X575284D01*
X577823Y1078229D01*
Y1088386D01*
X575284Y1090925D01*
X570205D01*
X567666Y1088386D01*
Y1085847D01*
X570205Y1083307D01*
X577823D01*
X443234Y1089658D02*
X453391Y1079502D01*
X443234D02*
X453391Y1089658D01*
X443234Y1084580D02*
X453391D01*
X448312Y1079502D02*
Y1089658D01*
X468626Y1076963D02*
X458469D01*
X468626Y1087119D01*
Y1089658D01*
X466087Y1092197D01*
X461008D01*
X458469Y1089658D01*
X807720Y303618D02*
Y292122D01*
Y297870D01*
X809636Y299786D01*
X813468D01*
X815384Y297870D01*
Y292122D01*
X821132Y301702D02*
Y299786D01*
X819216D01*
X823048D01*
X821132D01*
Y294038D01*
X823048Y292122D01*
X830713Y301702D02*
Y299786D01*
X828796D01*
X832629D01*
X830713D01*
Y294038D01*
X832629Y292122D01*
X838377Y288290D02*
Y299786D01*
X844125D01*
X846041Y297870D01*
Y294038D01*
X844125Y292122D01*
X838377D01*
X849873D02*
X855621D01*
X857537Y294038D01*
X855621Y295954D01*
X851789D01*
X849873Y297870D01*
X851789Y299786D01*
X857537D01*
X861369D02*
X863285D01*
Y297870D01*
X861369D01*
Y299786D01*
Y294038D02*
X863285D01*
Y292122D01*
X861369D01*
Y294038D01*
X870950Y292122D02*
X878614Y299786D01*
X882446Y292122D02*
X890110Y299786D01*
X895858Y292122D02*
X899690D01*
X901606Y294038D01*
Y297870D01*
X899690Y299786D01*
X895858D01*
X893942Y297870D01*
Y294038D01*
X895858Y292122D01*
X905439Y288290D02*
Y299786D01*
X911187D01*
X913103Y297870D01*
Y294038D01*
X911187Y292122D01*
X905439D01*
X922683D02*
X918851D01*
X916935Y294038D01*
Y297870D01*
X918851Y299786D01*
X922683D01*
X924599Y297870D01*
Y295954D01*
X916935D01*
X928431Y292122D02*
Y299786D01*
X934179D01*
X936095Y297870D01*
Y292122D01*
X947592Y299786D02*
X941843D01*
X939927Y297870D01*
Y294038D01*
X941843Y292122D01*
X947592D01*
X951424Y303618D02*
Y292122D01*
Y297870D01*
X953340Y299786D01*
X957172D01*
X959088Y297870D01*
Y292122D01*
X962920D02*
X966752D01*
X964836D01*
Y299786D01*
X962920D01*
X972500Y292122D02*
X976332D01*
X974416D01*
Y303618D01*
X972500D01*
X982081Y292122D02*
X985913D01*
X983997D01*
Y303618D01*
X982081D01*
X991661Y292122D02*
Y294038D01*
X993577D01*
Y292122D01*
X991661D01*
X1001241D02*
X1005073D01*
X1003157D01*
Y303618D01*
X1001241D01*
X1012737Y299786D02*
X1016569D01*
X1018485Y297870D01*
Y292122D01*
X1012737D01*
X1010821Y294038D01*
X1012737Y295954D01*
X1018485D01*
X1022318Y303618D02*
Y292122D01*
X1028066D01*
X1029982Y294038D01*
Y295954D01*
Y297870D01*
X1028066Y299786D01*
X1022318D01*
X1033814D02*
Y294038D01*
X1035730Y292122D01*
X1037646Y294038D01*
X1039562Y292122D01*
X1041478Y294038D01*
Y299786D01*
X1047226Y292122D02*
X1051058D01*
X1052974Y294038D01*
Y297870D01*
X1051058Y299786D01*
X1047226D01*
X1045310Y297870D01*
Y294038D01*
X1047226Y292122D01*
X1056806Y299786D02*
Y292122D01*
Y295954D01*
X1058722Y297870D01*
X1060639Y299786D01*
X1062554D01*
X1068303D02*
X1075967Y292122D01*
X1072135Y295954D01*
X1075967Y299786D01*
X1068303Y292122D01*
X1079799D02*
Y294038D01*
X1081715D01*
Y292122D01*
X1079799D01*
X1091295Y299786D02*
X1095127D01*
X1097043Y297870D01*
Y292122D01*
X1091295D01*
X1089379Y294038D01*
X1091295Y295954D01*
X1097043D01*
X1100875Y299786D02*
Y294038D01*
X1102792Y292122D01*
X1108540D01*
Y299786D01*
X1036701Y675255D02*
X1046858Y665098D01*
X1036701D02*
X1046858Y675255D01*
X1036701Y670176D02*
X1046858D01*
X1041779Y665098D02*
Y675255D01*
X1062093Y677794D02*
X1051936D01*
Y670176D01*
X1057014Y672716D01*
X1059554D01*
X1062093Y670176D01*
Y665098D01*
X1059554Y662559D01*
X1054475D01*
X1051936Y665098D01*
X1036701Y515235D02*
X1046858Y505078D01*
X1036701D02*
X1046858Y515235D01*
X1036701Y510157D02*
X1046858D01*
X1041779Y505078D02*
Y515235D01*
X1059554Y502539D02*
Y517774D01*
X1051936Y510157D01*
X1062093D01*
X890267Y434335D02*
X880110D01*
Y426717D01*
X885188Y429257D01*
X887728D01*
X890267Y426717D01*
Y421639D01*
X887728Y419100D01*
X882649D01*
X880110Y421639D01*
X895345Y434335D02*
Y424178D01*
X900423Y419100D01*
X905502Y424178D01*
Y434335D01*
X873757Y384806D02*
X871217Y387345D01*
X866139D01*
X863600Y384806D01*
Y374649D01*
X866139Y372110D01*
X871217D01*
X873757Y374649D01*
Y379728D01*
X868678D01*
X878835Y372110D02*
Y387345D01*
X888992Y372110D01*
Y387345D01*
X894070D02*
Y372110D01*
X901688D01*
X904227Y374649D01*
Y384806D01*
X901688Y387345D01*
X894070D01*
X994410Y554990D02*
Y565147D01*
X999488Y570225D01*
X1004567Y565147D01*
Y554990D01*
Y562607D01*
X994410D01*
X1009645Y567686D02*
X1012184Y570225D01*
X1017263D01*
X1019802Y567686D01*
Y565147D01*
X1017263Y562607D01*
X1014723D01*
X1017263D01*
X1019802Y560068D01*
Y557529D01*
X1017263Y554990D01*
X1012184D01*
X1009645Y557529D01*
X881380Y669285D02*
Y654050D01*
X888997D01*
X891537Y656589D01*
Y666746D01*
X888997Y669285D01*
X881380D01*
X896615Y656589D02*
X899154Y654050D01*
X904233D01*
X906772Y656589D01*
Y666746D01*
X904233Y669285D01*
X899154D01*
X896615Y666746D01*
Y664207D01*
X899154Y661667D01*
X906772D01*
X998220Y751835D02*
Y736600D01*
X1005837D01*
X1008377Y739139D01*
Y749296D01*
X1005837Y751835D01*
X998220D01*
X1013455Y736600D02*
X1018533D01*
X1015994D01*
Y751835D01*
X1013455Y749296D01*
X1026151D02*
X1028690Y751835D01*
X1033768D01*
X1036308Y749296D01*
Y739139D01*
X1033768Y736600D01*
X1028690D01*
X1026151Y739139D01*
Y749296D01*
X998220Y984245D02*
Y969010D01*
X1005837D01*
X1008377Y971549D01*
Y981706D01*
X1005837Y984245D01*
X998220D01*
X1013455Y981706D02*
X1015994Y984245D01*
X1021073D01*
X1023612Y981706D01*
Y979167D01*
X1021073Y976628D01*
X1023612Y974088D01*
Y971549D01*
X1021073Y969010D01*
X1015994D01*
X1013455Y971549D01*
Y974088D01*
X1015994Y976628D01*
X1013455Y979167D01*
Y981706D01*
X1015994Y976628D02*
X1021073D01*
X814068Y330193D02*
X808989D01*
X806450Y327654D01*
Y317498D01*
X808989Y314958D01*
X814068D01*
X816607Y317498D01*
Y327654D01*
X814068Y330193D01*
X821685Y309880D02*
Y325115D01*
X829303D01*
X831842Y322576D01*
Y317498D01*
X829303Y314958D01*
X821685D01*
X844538D02*
X839459D01*
X836920Y317498D01*
Y322576D01*
X839459Y325115D01*
X844538D01*
X847077Y322576D01*
Y320037D01*
X836920D01*
X852155Y314958D02*
Y325115D01*
X859773D01*
X862312Y322576D01*
Y314958D01*
X877547Y327654D02*
X875008Y330193D01*
X869930D01*
X867390Y327654D01*
Y317498D01*
X869930Y314958D01*
X875008D01*
X877547Y317498D01*
X882625Y330193D02*
Y314958D01*
Y322576D01*
X885164Y325115D01*
X890243D01*
X892782Y322576D01*
Y314958D01*
X897860D02*
X902939D01*
X900400D01*
Y325115D01*
X897860D01*
X910556Y314958D02*
X915635D01*
X913095D01*
Y330193D01*
X910556D01*
X923252Y314958D02*
X928331D01*
X925791D01*
Y330193D01*
X923252D01*
X951183Y325115D02*
X956262Y314958D01*
X961340Y325115D01*
X966418Y314958D02*
X971497D01*
X968957D01*
Y330193D01*
X966418Y327654D01*
X979114Y314958D02*
Y317498D01*
X981653D01*
Y314958D01*
X979114D01*
X991810Y327654D02*
X994349Y330193D01*
X999427D01*
X1001967Y327654D01*
Y317498D01*
X999427Y314958D01*
X994349D01*
X991810Y317498D01*
Y327654D01*
X1007045Y314958D02*
Y317498D01*
X1009584D01*
Y314958D01*
X1007045D01*
X1019741Y327654D02*
X1022280Y330193D01*
X1027358D01*
X1029898Y327654D01*
Y317498D01*
X1027358Y314958D01*
X1022280D01*
X1019741Y317498D01*
Y327654D01*
X437896Y766568D02*
X448053Y756411D01*
X437896D02*
X448053Y766568D01*
X437896Y761489D02*
X448053D01*
X442974Y756411D02*
Y766568D01*
X453131Y753872D02*
X458209D01*
X455670D01*
Y769107D01*
X453131Y766568D01*
X465827D02*
X468366Y769107D01*
X473445D01*
X475984Y766568D01*
Y756411D01*
X473445Y753872D01*
X468366D01*
X465827Y756411D01*
Y766568D01*
X740664Y600456D02*
Y615691D01*
X748281D01*
X750821Y613152D01*
Y608074D01*
X748281Y605534D01*
X740664D01*
X745742D02*
X750821Y600456D01*
X755899D02*
X760977D01*
X758438D01*
Y615691D01*
X755899Y613152D01*
X721364Y702308D02*
X731521Y692152D01*
X721364D02*
X731521Y702308D01*
X721364Y697230D02*
X731521D01*
X726442Y692152D02*
Y702308D01*
X736599Y692152D02*
X739138Y689613D01*
X744217D01*
X746756Y692152D01*
Y702308D01*
X744217Y704847D01*
X739138D01*
X736599Y702308D01*
Y699769D01*
X739138Y697230D01*
X746756D01*
X1010230Y773452D02*
X1017894Y765788D01*
X1010230D02*
X1017894Y773452D01*
X1010230Y769620D02*
X1017894D01*
X1014062Y765788D02*
Y773452D01*
X1021726D02*
X1023642Y775368D01*
X1027474D01*
X1029390Y773452D01*
Y771536D01*
X1027474Y769620D01*
X1029390Y767704D01*
Y765788D01*
X1027474Y763872D01*
X1023642D01*
X1021726Y765788D01*
Y767704D01*
X1023642Y769620D01*
X1021726Y771536D01*
Y773452D01*
X1023642Y769620D02*
X1027474D01*
X807722Y793754D02*
X817878Y803911D01*
Y793754D02*
X807722Y803911D01*
X812800Y793754D02*
Y803911D01*
X817878Y798832D02*
X807722D01*
X805182Y808989D02*
Y819146D01*
X807722D01*
X817878Y808989D01*
X820417D01*
X410209Y445774D02*
X420366Y455931D01*
Y445774D02*
X410209Y455931D01*
X415288Y445774D02*
Y455931D01*
X420366Y450852D02*
X410209D01*
X407670Y471166D02*
X410209Y466087D01*
X415288Y461009D01*
X420366D01*
X422905Y463548D01*
Y468627D01*
X420366Y471166D01*
X417827D01*
X415288Y468627D01*
Y461009D01*
D12*
X950600Y701720D02*
D03*
D13*
X602160Y934340D02*
D03*
D14*
X1058790Y863610D02*
D03*
D15*
X545440Y526150D02*
D03*
M02*
