%TF.GenerationSoftware,Altium Limited,Altium Designer,20.2.4 (192)*%
G04 Layer_Physical_Order=1*
G04 Layer_Color=255*
%FSLAX45Y45*%
%MOMM*%
%TF.SameCoordinates,483BC9C7-C9DC-4D12-9878-F5ACEA5A61B7*%
%TF.FilePolarity,Positive*%
%TF.FileFunction,Copper,L1,Top,Signal*%
%TF.Part,Single*%
G01*
G75*
%TA.AperFunction,ComponentPad*%
%ADD10R,2.50000X2.50000*%
%ADD11C,2.50000*%
%ADD12C,1.52400*%
%ADD13R,1.52400X1.52400*%
%ADD14R,2.50000X2.50000*%
%ADD15R,1.20000X1.20000*%
%ADD16C,1.20000*%
D10*
X3657600Y8267700D02*
D03*
X9461500Y3784600D02*
D03*
Y5613400D02*
D03*
Y7454900D02*
D03*
Y9271000D02*
D03*
X3987800Y9232900D02*
D03*
X10477500Y5918200D02*
D03*
Y4318000D02*
D03*
X8394700Y7289800D02*
D03*
X3949700Y3149600D02*
D03*
D11*
X3657600Y7772400D02*
D03*
X9461500Y4775200D02*
D03*
Y4279900D02*
D03*
Y6604000D02*
D03*
Y6108700D02*
D03*
Y8445500D02*
D03*
Y7950200D02*
D03*
Y10261600D02*
D03*
Y9766300D02*
D03*
X3987800Y10223500D02*
D03*
Y9728200D02*
D03*
X10477500Y6413500D02*
D03*
Y4813300D02*
D03*
X7620000Y7327900D02*
D03*
X8394700Y8280400D02*
D03*
Y7785100D02*
D03*
X3949700Y3644900D02*
D03*
X4546600Y3251700D02*
D03*
X6346600D02*
D03*
Y7251700D02*
D03*
X4546600D02*
D03*
D12*
X7518400Y9728200D02*
D03*
Y9461500D02*
D03*
X10541000Y8915400D02*
D03*
Y8648700D02*
D03*
D13*
X7518400Y9994900D02*
D03*
X10541000Y8382000D02*
D03*
D14*
X7124700Y7327900D02*
D03*
D15*
X7645400Y5664200D02*
D03*
D16*
X7899400D02*
D03*
X8153400D02*
D03*
%TF.MD5,3961f5dc7eac6c8e75476eb7f8806f0a*%
M02*
